<?xml version="1.0" encoding="utf-8"?>
<!-- Generator: Adobe Illustrator 28.0.0, SVG Export Plug-In . SVG Version: 6.00 Build 0)  -->
<svg version="1.1" id="Layer_1" xmlns="http://www.w3.org/2000/svg" xmlns:xlink="http://www.w3.org/1999/xlink" x="0px" y="0px"
	 viewBox="0 0 25 25" style="enable-background:new 0 0 25 25;" xml:space="preserve">
<style type="text/css">
	.st0{fill:#FFFFFF;}
</style>
<path class="st0" d="M15.53,24.99c0-0.09,0-0.16,0-0.23c0-2.6,0-5.2,0-7.8c0-0.07,0-0.13,0-0.2c-0.01-0.27-0.19-0.44-0.46-0.44
	c-0.04,0-0.07,0-0.11,0c-1.62,0-3.25,0-4.87,0c-0.05,0-0.1,0-0.15,0c-0.22,0.01-0.39,0.18-0.41,0.41c0,0.06,0,0.12,0,0.18
	c0,2.62,0,5.24,0,7.86c0,0.06,0,0.13,0,0.2C9.48,24.99,9.46,25,9.43,25c-0.04,0-0.08,0-0.12,0c-2.13,0-4.25,0-6.38,0
	c-0.06,0-0.12,0-0.18,0c-0.21-0.02-0.38-0.18-0.39-0.39c0-0.04,0-0.08,0-0.12c0-4.49,0-8.97,0-13.46c0-0.05,0-0.1,0.01-0.15
	c0.02-0.11,0.08-0.19,0.15-0.27c0.34-0.32,0.67-0.65,1.01-0.97c2.87-2.76,5.74-5.52,8.61-8.28c0.04-0.03,0.07-0.07,0.11-0.1
	c0.17-0.13,0.39-0.13,0.56,0c0.04,0.03,0.08,0.08,0.12,0.11c3.08,2.99,6.16,5.98,9.24,8.98c0.11,0.11,0.23,0.21,0.35,0.31
	c0.13,0.11,0.19,0.24,0.19,0.41c0,0.05,0,0.09,0,0.14c0,4.4,0,8.8,0,13.2c0,0.07,0,0.13,0,0.2c-0.02,0.22-0.18,0.38-0.4,0.4
	c-0.05,0-0.09,0-0.14,0c-2.15,0-4.29,0-6.44,0C15.66,25,15.6,25,15.53,24.99z"/>
<path class="st0" d="M12.5,1.79c-0.05,0.04-0.08,0.07-0.12,0.11c-3.67,3.46-7.33,6.93-11,10.39c-0.05,0.05-0.1,0.1-0.16,0.15
	c-0.25,0.19-0.53,0.22-0.81,0.08C0.14,12.38,0,12.14,0,11.83c0-0.18,0.07-0.35,0.19-0.48c0.03-0.03,0.05-0.06,0.08-0.08
	c2.42-2.29,4.84-4.57,7.26-6.86c1.45-1.37,2.91-2.75,4.36-4.12c0.03-0.02,0.05-0.05,0.08-0.07c0.3-0.29,0.77-0.28,1.06,0
	c0.3,0.29,0.6,0.57,0.9,0.85c3.28,3.1,6.56,6.2,9.84,9.3c0.31,0.29,0.62,0.59,0.93,0.88c0.03,0.03,0.07,0.06,0.1,0.1
	c0.21,0.24,0.26,0.51,0.14,0.8c-0.12,0.29-0.36,0.45-0.68,0.46c-0.19,0.01-0.36-0.06-0.5-0.18c-0.03-0.03-0.06-0.06-0.1-0.09
	c-2.94-2.78-5.88-5.56-8.83-8.34c-0.74-0.7-1.48-1.4-2.22-2.1C12.58,1.86,12.54,1.83,12.5,1.79z"/>
</svg>
