<?xml version="1.0" encoding="utf-8"?>
<!-- Generator: Adobe Illustrator 28.0.0, SVG Export Plug-In . SVG Version: 6.00 Build 0)  -->
<svg version="1.1" id="Layer_1" xmlns="http://www.w3.org/2000/svg" xmlns:xlink="http://www.w3.org/1999/xlink" x="0px" y="0px"
	 viewBox="0 0 28.34 28.34" style="enable-background:new 0 0 28.34 28.34;" xml:space="preserve">
<style type="text/css">
	.st0{fill:#FFFFFF;}
</style>
<g>
	<path class="st0" d="M14.17,2.55c3.78,0,4.23,0.01,5.73,0.08c1.38,0.06,2.13,0.29,2.63,0.49c0.66,0.26,1.13,0.56,1.63,1.06
		c0.5,0.5,0.8,0.97,1.06,1.63c0.19,0.5,0.42,1.25,0.49,2.63c0.07,1.49,0.08,1.94,0.08,5.73s-0.01,4.23-0.08,5.73
		c-0.06,1.38-0.29,2.13-0.49,2.63c-0.26,0.66-0.56,1.13-1.06,1.63c-0.5,0.5-0.97,0.8-1.63,1.06c-0.5,0.19-1.25,0.42-2.63,0.49
		c-1.49,0.07-1.94,0.08-5.73,0.08s-4.23-0.01-5.73-0.08c-1.38-0.06-2.13-0.29-2.63-0.49c-0.66-0.26-1.13-0.56-1.63-1.06
		c-0.5-0.5-0.8-0.97-1.06-1.63c-0.19-0.5-0.42-1.25-0.49-2.63c-0.07-1.49-0.08-1.94-0.08-5.73s0.01-4.23,0.08-5.73
		C2.7,7.06,2.93,6.31,3.12,5.81c0.26-0.66,0.56-1.13,1.06-1.63c0.5-0.5,0.97-0.8,1.63-1.06c0.5-0.19,1.25-0.42,2.63-0.49
		C9.94,2.57,10.39,2.55,14.17,2.55 M14.17,0c-3.85,0-4.33,0.02-5.84,0.09C6.82,0.15,5.79,0.39,4.89,0.74
		C3.96,1.11,3.17,1.59,2.38,2.38C1.59,3.17,1.11,3.96,0.74,4.89c-0.35,0.9-0.59,1.93-0.66,3.44C0.02,9.84,0,10.32,0,14.17
		c0,3.85,0.02,4.33,0.09,5.84c0.07,1.51,0.31,2.54,0.66,3.44c0.36,0.93,0.85,1.72,1.63,2.51c0.79,0.79,1.58,1.27,2.51,1.63
		c0.9,0.35,1.93,0.59,3.44,0.66c1.51,0.07,1.99,0.09,5.84,0.09s4.33-0.02,5.84-0.09c1.51-0.07,2.54-0.31,3.44-0.66
		c0.93-0.36,1.72-0.85,2.51-1.63c0.79-0.79,1.27-1.58,1.63-2.51c0.35-0.9,0.59-1.93,0.66-3.44c0.07-1.51,0.09-1.99,0.09-5.84
		s-0.02-4.33-0.09-5.84c-0.07-1.51-0.31-2.54-0.66-3.44c-0.36-0.93-0.85-1.72-1.63-2.51c-0.79-0.79-1.58-1.27-2.51-1.63
		c-0.9-0.35-1.93-0.59-3.44-0.66C18.5,0.02,18.02,0,14.17,0L14.17,0z"/>
	<path class="st0" d="M14.17,6.89c-4.02,0-7.28,3.26-7.28,7.28s3.26,7.28,7.28,7.28s7.28-3.26,7.28-7.28S18.19,6.89,14.17,6.89z
		 M14.17,18.89c-2.61,0-4.72-2.11-4.72-4.72c0-2.61,2.11-4.72,4.72-4.72s4.72,2.11,4.72,4.72C18.89,16.78,16.78,18.89,14.17,18.89z"
		/>
	<circle class="st0" cx="21.73" cy="6.61" r="1.7"/>
</g>
</svg>
