<?xml version="1.0" encoding="utf-8"?>
<!-- Generator: Adobe Illustrator 28.0.0, SVG Export Plug-In . SVG Version: 6.00 Build 0)  -->
<svg version="1.1" id="Layer_1" xmlns="http://www.w3.org/2000/svg" xmlns:xlink="http://www.w3.org/1999/xlink" x="0px" y="0px"
	 viewBox="0 0 16 16" style="enable-background:new 0 0 16 16;" xml:space="preserve">
<style type="text/css">
	.st0{fill:#FFFFFF;}
</style>
<g>
	<g>
		<g>
			<path class="st0" d="M425.1-55.8c-0.4,0-0.5-0.3-0.5-0.5v-43.8c0-0.3,0.2-0.5,0.5-0.5h11.5c4.7,0,6.5,2.3,6.5,6.2V-82
				c0,4-1.4,6.6-6.4,6.6h-5.3v19c0,0.4-0.2,0.5-0.5,0.5H425.1z M431.4-94.2v12.4h4.6c0.3,0,0.3-0.1,0.3-0.3v-11.7
				c0-0.3-0.1-0.3-0.3-0.3H431.4z"/>
		</g>
		<g>
			<path class="st0" d="M446.9-56.3v-43.8c0-0.3,0.2-0.5,0.5-0.5H460c4.7,0,6.5,2.3,6.5,6.2v32.4c0,4-1.4,6.3-6.4,6.3h-12.6
				C447.1-55.8,446.9-56.1,446.9-56.3z M453.7-94.2v31.9h5.6c0.3,0,0.3-0.1,0.3-0.3v-31.3c0-0.3-0.1-0.3-0.3-0.3H453.7z"/>
		</g>
		<g>
			<path class="st0" d="M474.6-100.7c0.3,0,0.4,0.1,0.5,0.5l3,11.8l2.9-11.8c0.1-0.4,0.2-0.5,0.5-0.5h5.8c0.4,0,0.5,0.3,0.5,0.5
				l-5.8,21.9l5.8,21.9c0,0.2-0.1,0.5-0.5,0.5h-5.8c-0.3,0-0.4-0.1-0.5-0.5l-2.9-11.8l-3,11.8c-0.1,0.4-0.2,0.5-0.5,0.5h-5.8
				c-0.4,0-0.5-0.3-0.5-0.5l5.9-21.9l-5.9-21.9c0-0.2,0.1-0.5,0.5-0.5H474.6z"/>
		</g>
	</g>
	<g>
		<g>
			<path class="st0" d="M352.1-55.3h-6.5c-4.9,0-7.1-2.1-7.1-6.7v-6.6c0-0.6,0.4-0.9,1-0.9h5.8c0.6,0,1,0.4,1,0.9v5.8l4.9,0l0-12.1
				l-5.7,0c-4.7,0-7-1-7-6.7V-95c0-4.6,2.3-6.8,7-6.8h6.5c4.7,0,7,2.2,7,6.7v6c0,0.6-0.4,0.9-1,0.9h-5.8c-0.6,0-1-0.4-1-0.9v-5.2
				l-4.9,0l0,12l5.7,0c4.8,0,7,2.1,7,6.7v13.6C359-57.3,356.9-55.3,352.1-55.3z M339.5-68.5l0,6.6c0,3.4,1,5.7,6.1,5.7h6.5
				c4.9,0,5.9-2.3,5.9-5.8v-13.6c0-3.4-1-5.7-6-5.7h-5.9c-0.5,0-0.8-0.3-0.8-0.8v-12.4c0-0.5,0.3-0.8,0.8-0.8h5.3
				c0.5,0,0.8,0.3,0.8,0.8v5.4l5.8-0.1c0,0,0,0,0,0l0-5.9c0-4-1.8-5.7-6-5.7h-6.5c-4.1,0-6,1.8-6,5.8v13.5c0,4.8,1.5,5.7,6,5.7h5.9
				c0.5,0,0.8,0.3,0.8,0.8v12.4c0,0.5-0.3,0.8-0.8,0.8h-5.3c-0.5,0-0.8-0.3-0.8-0.8v-6L339.5-68.5C339.5-68.5,339.5-68.5,339.5-68.5
				z"/>
		</g>
		<g>
			<path class="st0" d="M371.5-55.6h-5.8c-0.6,0-1-0.5-1-1v-37.4h-4.4c-0.7,0-1-0.5-1-0.9v-5.4c0-0.6,0.4-1,1-1h16.6
				c0.6,0,1,0.4,1,1v5.4c0,0.5-0.4,0.9-1,0.9h-4.4v37.4C372.5-56,372.1-55.6,371.5-55.6z M365.2-95.1h0.5v38.4l5.8,0l0-38.5h5.4
				l0-5.4l-16.6,0l0,5.5L365.2-95.1z"/>
		</g>
		<g>
			<path class="st0" d="M397.5-55.6h-6c-0.6,0-1-0.4-1-1L389-66.8h-4.5L383-56.6c0,0.5-0.4,0.9-1,0.9h-6c-0.6,0-1-0.4-1-1l7.6-43.9
				c0-0.4,0.4-0.9,1-0.9h6.6c0.6,0,1,0.5,1,1l7.2,43.8C398.5-56.1,398.1-55.6,397.5-55.6z M383.6-100.5L383.6-100.5L376-56.6l6-0.1
				l1.7-11.2h6.2l1.5,11.1l6,0.1l-7.2-43.9l0,0H383.6z M389.2-73.3h-4.7l2.5-16.4L389.2-73.3z M385.7-74.3h2.4l-1.1-8.3L385.7-74.3z
				"/>
		</g>
		<g>
			<path class="st0" d="M419.5-55.6h-6.4c-0.6,0-1-0.5-1-0.9l-3.9-14.1v14c0,0.6-0.4,1-1,1h-5.8c-0.6,0-1-0.5-1-1v-43.8
				c0-0.6,0.4-1,1-1h11.5c4.7,0,7,2.2,7,6.7v13.1c0,2.7-0.6,5.9-4.9,6.6l5.5,18.2c0.1,0.4-0.1,0.7-0.2,0.8
				C420.2-55.8,420-55.6,419.5-55.6z M401.4-100.5l0,43.8l5.8,0c0,0,0,0,0,0l0-21.4l5.9,21.4h6.4l-5.8-19.2l0.6-0.1
				c3.2-0.3,4.5-2,4.5-5.7v-13.1c0-4-1.8-5.7-6-5.7H401.4z M412.3-81.3h-5.1V-95h5.1c0.5,0,0.8,0.3,0.8,0.8v12
				C413.1-81.6,412.8-81.3,412.3-81.3z M408.2-82.3h3.9l0-11.7l-3.9,0V-82.3z"/>
		</g>
	</g>
	<g>
		<g>
			<path class="st0" d="M503.9-55.6h-12.6c-0.6,0-1-0.5-1-1v-43.8c0-0.6,0.4-1,1-1h12.5c4.7,0,7,2.2,7,6.7v32.4
				C510.8-57.7,508.7-55.6,503.9-55.6z M491.3-56.6l12.6,0c4.9,0,5.9-2.3,5.9-5.8v-32.4c0-4-1.8-5.7-6-5.7h-12.5L491.3-56.6z
				 M503.2-62.1h-6.1V-95h6.1c0.5,0,0.8,0.3,0.8,0.8v31.3C504-62.4,503.7-62.1,503.2-62.1z M498.1-63.1h4.9l0-30.9l-4.9,0V-63.1z"/>
		</g>
		<g>
			<path class="st0" d="M518.9-55.6H513c-0.6,0-1-0.5-1-1v-5.5c0-0.5,0.4-0.9,1-0.9h4.9l0-37.4c0-0.6,0.4-1,1-1h5.8c0.6,0,1,0.4,1,1
				v38.1C525.8-57.7,523.7-55.6,518.9-55.6z M513-62.1l0,5.5l5.8,0c4.9,0,5.9-2.3,5.9-5.8v-38.1l-5.8,0l0,37.6
				c0,0.5-0.3,0.8-0.8,0.8H513z"/>
		</g>
		<g>
			<path class="st0" d="M533.5-93.7h-5.1c-0.4,0-0.7-0.1-0.9-0.4c-0.1-0.2-0.2-0.5,0-0.9l3.6-12.4c0.2-0.5,0.6-0.9,1.1-0.9h5.2
				c0.5,0,0.7,0.2,0.8,0.4c0.1,0.2,0.2,0.5,0,1l-3.6,12.4C534.5-94,534-93.7,533.5-93.7z M528.4-94.7h5c0.1,0,0.2,0,0.2-0.2
				l3.6-12.5l-5.1,0c0,0-0.1,0-0.2,0.2L528.4-94.7z"/>
		</g>
		<g>
			<path class="st0" d="M551.3-55.3h-6.5c-4.9,0-7.1-2.1-7.1-6.7v-6.6c0-0.6,0.4-0.9,1-0.9h5.8c0.6,0,1,0.4,1,0.9v5.8l4.9,0l0-12.1
				l-5.7,0c-4.7,0-7-1-7-6.7V-95c0-4.6,2.3-6.8,7-6.8h6.5c4.7,0,7,2.2,7,6.7v6c0,0.6-0.4,0.9-1,0.9h-5.8c-0.6,0-1-0.4-1-0.9v-5.2
				l-4.9,0l0,12l5.7,0c4.8,0,7,2.1,7,6.7v13.6C558.3-57.3,556.2-55.3,551.3-55.3z M538.8-68.5l0,6.6c0,3.4,1,5.7,6.1,5.7h6.5
				c4.9,0,5.9-2.3,5.9-5.8v-13.6c0-3.4-1-5.7-6-5.7h-5.9c-0.5,0-0.8-0.3-0.8-0.8v-12.4c0-0.5,0.3-0.8,0.8-0.8h5.3
				c0.5,0,0.8,0.3,0.8,0.8v5.4l5.8-0.1c0,0,0,0,0,0l0-5.9c0-4-1.8-5.7-6-5.7h-6.5c-4.1,0-6,1.8-6,5.8v13.5c0,4.8,1.5,5.7,6,5.7h5.9
				c0.5,0,0.8,0.3,0.8,0.8v12.4c0,0.5-0.3,0.8-0.8,0.8h-5.3c-0.5,0-0.8-0.3-0.8-0.8v-6L538.8-68.5C538.8-68.5,538.8-68.5,538.8-68.5
				z"/>
		</g>
	</g>
</g>
<g>
	<path d="M9.6,12.8c-0.3,0-0.5-0.1-0.8,0c-0.5,0-1,0.2-1.4,0.5C7,13.6,6.5,14,6,14.4c-0.5,0.5-1.1,0.9-1.7,1.2C4,15.8,3.5,16,3.1,16
		c-0.1,0-0.3,0-0.4,0c-0.7,0-1.4-0.2-1.7-0.9c-0.1-0.2-0.2-0.3-0.2-0.5c0-0.1,0-0.2,0-0.3c0-0.3,0.1-0.6,0.3-0.8
		c0.2-0.3,0.4-0.6,0.7-0.8c0,0,0.1-0.1,0.1-0.1c0-0.4,0.1-0.6,0.3-0.9C3.1,10.4,4,9.3,4.8,8.3c1-1.2,2-2.4,3-3.6
		c0,0,0.1-0.1,0.1-0.1c0.5,1.3,1.5,2.2,2.7,2.8c0,0,0,0.1-0.1,0.1C8.3,9.2,6.1,11.1,3.8,13c-0.1,0.1-0.1,0.1-0.2,0.2
		c-0.2,0.1-0.4,0.2-0.6,0.2c-0.1,0-0.2,0-0.2,0c-0.2-0.1-0.3,0.1-0.4,0.2C2.2,13.8,2,14,1.9,14.3c0,0,0,0,0,0c0,0,0,0,0,0.1
		c0,0,0,0,0,0c0,0,0,0,0,0c0.1,0.2,0.2,0.4,0.4,0.4c0.5,0.1,1.1,0,1.5-0.2c0.4-0.2,0.8-0.5,1.1-0.8c0.5-0.5,1.1-0.9,1.6-1.4
		c0.6-0.4,1.2-0.7,1.9-0.8c0.8-0.1,1.5,0,2.2,0.3c1.1,0.4,2.1,1.1,2.9,1.9c0.3,0.3,0.6,0.7,0.9,1c0.1,0.1,0.1,0.2,0.1,0.3
		c0,0.1,0,0.1,0,0.2c0,0.2-0.2,0.4-0.4,0.5c-0.2,0.1-0.5,0-0.6-0.2c-0.3-0.4-0.7-0.8-1.1-1.2c-0.7-0.6-1.4-1.2-2.3-1.5
		C10.1,12.9,9.9,12.9,9.6,12.8C9.7,12.8,9.7,12.8,9.6,12.8C9.7,12.8,9.7,12.8,9.6,12.8z"/>
	<path d="M15.2,4.1c0,0.5-0.2,0.9-0.4,1.3c0,0.1-0.1,0-0.1,0c-2.2-0.5-3.7-1.7-4.6-3.8C9.9,1.3,9.8,0.9,9.7,0.6c0,0,0-0.1,0-0.1
		C10.2,0.2,10.6,0,11.1,0c0.2,0,0.3,0,0.5,0c0.5,0,0.9,0.1,1.3,0.4c1.2,0.6,2,1.6,2.2,2.9c0,0.1,0,0.2,0,0.4
		C15.2,3.8,15.2,4,15.2,4.1z"/>
	<path d="M14,6.3c-0.5,0.3-1,0.5-1.5,0.5c-1.5,0-2.7-0.7-3.5-2C8.5,4,8.3,3.1,8.5,2.2c0.1-0.4,0.2-0.7,0.4-1
		C9.7,3.8,11.4,5.5,14,6.3z"/>
	<path d="M11.6,0c-0.2,0-0.3,0-0.5,0C11.3,0,11.4,0,11.6,0z"/>
	<path d="M2.7,16c0.1,0,0.3,0,0.4,0C2.9,16,2.8,16,2.7,16z"/>
	<path d="M15.2,4.1c0-0.1,0-0.3,0-0.4C15.2,3.8,15.2,4,15.2,4.1z"/>
	<path d="M0.8,14.2c0,0.1,0,0.2,0,0.3C0.8,14.4,0.8,14.3,0.8,14.2z"/>
	<path d="M14.7,15.4c0-0.1,0-0.1,0-0.2C14.7,15.2,14.7,15.3,14.7,15.4z"/>
	<path d="M2.8,13.4c0.1,0,0.2,0,0.2,0C3,13.4,2.9,13.4,2.8,13.4z"/>
	<path d="M1.9,14.4C1.9,14.4,1.9,14.4,1.9,14.4c0,0,0-0.1,0-0.1C1.9,14.3,1.9,14.3,1.9,14.4C1.9,14.4,1.9,14.4,1.9,14.4z"/>
	<path d="M9.6,12.8c0,0,0.1,0,0.1,0C9.7,12.8,9.7,12.8,9.6,12.8C9.7,12.8,9.6,12.8,9.6,12.8z"/>
</g>
</svg>
