<?xml version="1.0" encoding="utf-8"?>
<!-- Generator: Adobe Illustrator 28.0.0, SVG Export Plug-In . SVG Version: 6.00 Build 0)  -->
<svg version="1.1" id="Layer_1" xmlns="http://www.w3.org/2000/svg" xmlns:xlink="http://www.w3.org/1999/xlink" x="0px" y="0px"
	 viewBox="0 0 250 55" style="enable-background:new 0 0 250 55;" xml:space="preserve">
<style type="text/css">
	.st0{fill:#FFFFFF;}
</style>
<g>
	<g>
		<g>
			<path class="st0" d="M101.7,53.5c-0.4,0-0.5-0.3-0.5-0.5V9.2c0-0.3,0.2-0.5,0.5-0.5h11.5c4.7,0,6.5,2.3,6.5,6.2v12.5
				c0,4-1.4,6.6-6.4,6.6H108v19c0,0.4-0.2,0.5-0.5,0.5H101.7z M108,15.1v12.4h4.6c0.3,0,0.3-0.1,0.3-0.3V15.5c0-0.3-0.1-0.3-0.3-0.3
				H108z"/>
		</g>
		<g>
			<path class="st0" d="M123.6,53V9.2c0-0.3,0.2-0.5,0.5-0.5h12.5c4.7,0,6.5,2.3,6.5,6.2v32.4c0,4-1.4,6.3-6.4,6.3h-12.6
				C123.7,53.5,123.6,53.2,123.6,53z M130.4,15.1V47h5.6c0.3,0,0.3-0.1,0.3-0.3V15.5c0-0.3-0.1-0.3-0.3-0.3H130.4z"/>
		</g>
		<g>
			<path class="st0" d="M151.2,8.7c0.3,0,0.4,0.1,0.5,0.5l3,11.8l2.9-11.8c0.1-0.4,0.2-0.5,0.5-0.5h5.8c0.4,0,0.5,0.3,0.5,0.5
				l-5.8,21.9l5.8,21.9c0,0.2-0.1,0.5-0.5,0.5h-5.8c-0.3,0-0.4-0.1-0.5-0.5l-2.9-11.8l-3,11.8c-0.1,0.4-0.2,0.5-0.5,0.5h-5.8
				c-0.4,0-0.5-0.3-0.5-0.5l5.9-21.9L145,9.2c0-0.2,0.1-0.5,0.5-0.5H151.2z"/>
		</g>
	</g>
	<g>
		<g>
			<path class="st0" d="M28.7,54h-6.5c-4.9,0-7.1-2.1-7.1-6.7v-6.6c0-0.6,0.4-0.9,1-0.9h5.8c0.6,0,1,0.4,1,0.9v5.8l4.9,0l0-12.1
				l-5.7,0c-4.7,0-7-1-7-6.7V14.3c0-4.6,2.3-6.8,7-6.8h6.5c4.7,0,7,2.2,7,6.7v6c0,0.6-0.4,0.9-1,0.9h-5.8c-0.6,0-1-0.4-1-0.9V15
				l-4.9,0l0,12l5.7,0c4.8,0,7,2.1,7,6.7v13.6C35.6,52,33.5,54,28.7,54z M16.1,40.8l0,6.6c0,3.4,1,5.7,6.1,5.7h6.5
				c4.9,0,5.9-2.3,5.9-5.8V33.7c0-3.4-1-5.7-6-5.7h-5.9c-0.5,0-0.8-0.3-0.8-0.8V14.8c0-0.5,0.3-0.8,0.8-0.8H28
				c0.5,0,0.8,0.3,0.8,0.8v5.4l5.8-0.1c0,0,0,0,0,0l0-5.9c0-4-1.8-5.7-6-5.7h-6.5c-4.1,0-6,1.8-6,5.8v13.5c0,4.8,1.5,5.7,6,5.7H28
				c0.5,0,0.8,0.3,0.8,0.8v12.4c0,0.5-0.3,0.8-0.8,0.8h-5.3c-0.5,0-0.8-0.3-0.8-0.8v-6L16.1,40.8C16.1,40.8,16.1,40.8,16.1,40.8z"/>
		</g>
		<g>
			<path class="st0" d="M48.1,53.7h-5.8c-0.6,0-1-0.5-1-1V15.2h-4.4c-0.7,0-1-0.5-1-0.9V8.9c0-0.6,0.4-1,1-1h16.6c0.6,0,1,0.4,1,1
				v5.4c0,0.5-0.4,0.9-1,0.9h-4.4v37.4C49.1,53.3,48.7,53.7,48.1,53.7z M41.8,14.2h0.5v38.4l5.8,0l0-38.5h5.4l0-5.4l-16.6,0l0,5.5
				L41.8,14.2z"/>
		</g>
		<g>
			<path class="st0" d="M74.1,53.7h-6c-0.6,0-1-0.4-1-1l-1.4-10.2h-4.5l-1.5,10.3c0,0.5-0.4,0.9-1,0.9h-6c-0.6,0-1-0.4-1-1l7.6-43.9
				c0-0.4,0.4-0.9,1-0.9h6.6c0.6,0,1,0.5,1,1l7.2,43.8C75.1,53.3,74.7,53.7,74.1,53.7z M60.2,8.8L60.2,8.8l-7.6,43.9l6-0.1l1.7-11.2
				h6.2L68,52.6l6,0.1L66.8,8.8l0,0H60.2z M65.8,36.1h-4.7l2.5-16.4L65.8,36.1z M62.3,35.1h2.4l-1.1-8.3L62.3,35.1z"/>
		</g>
		<g>
			<path class="st0" d="M96.1,53.7h-6.4c-0.6,0-1-0.5-1-0.9l-3.9-14.1v14c0,0.6-0.4,1-1,1H78c-0.6,0-1-0.5-1-1V8.9c0-0.6,0.4-1,1-1
				h11.5c4.7,0,7,2.2,7,6.7v13.1c0,2.7-0.6,5.9-4.9,6.6l5.5,18.2c0.1,0.4-0.1,0.7-0.2,0.8C96.8,53.5,96.6,53.7,96.1,53.7z M78,8.8
				l0,43.8l5.8,0c0,0,0,0,0,0l0-21.4l5.9,21.4h6.4l-5.8-19.2l0.6-0.1c3.2-0.3,4.5-2,4.5-5.7V14.6c0-4-1.8-5.7-6-5.7H78z M88.9,28
				h-5.1V14.3h5.1c0.5,0,0.8,0.3,0.8,0.8v12C89.7,27.7,89.4,28,88.9,28z M84.8,27h3.9l0-11.7l-3.9,0V27z"/>
		</g>
	</g>
	<g>
		<g>
			<path class="st0" d="M180.5,53.7h-12.6c-0.6,0-1-0.5-1-1V8.9c0-0.6,0.4-1,1-1h12.5c4.7,0,7,2.2,7,6.7v32.4
				C187.4,51.7,185.3,53.7,180.5,53.7z M167.9,52.7l12.6,0c4.9,0,5.9-2.3,5.9-5.8V14.6c0-4-1.8-5.7-6-5.7h-12.5L167.9,52.7z
				 M179.8,47.2h-6.1V14.3h6.1c0.5,0,0.8,0.3,0.8,0.8v31.3C180.6,46.9,180.3,47.2,179.8,47.2z M174.7,46.2h4.9l0-30.9l-4.9,0V46.2z"
				/>
		</g>
		<g>
			<path class="st0" d="M195.5,53.7h-5.8c-0.6,0-1-0.5-1-1v-5.5c0-0.5,0.4-0.9,1-0.9h4.9l0-37.4c0-0.6,0.4-1,1-1h5.8
				c0.6,0,1,0.4,1,1v38.1C202.4,51.7,200.3,53.7,195.5,53.7z M189.6,47.2l0,5.5l5.8,0c4.9,0,5.9-2.3,5.9-5.8V8.9l-5.8,0l0,37.6
				c0,0.5-0.3,0.8-0.8,0.8H189.6z"/>
		</g>
		<g>
			<path class="st0" d="M210.1,15.6H205c-0.4,0-0.7-0.1-0.9-0.4c-0.1-0.2-0.2-0.5,0-0.9l3.6-12.4c0.2-0.5,0.6-0.9,1.1-0.9h5.2
				c0.5,0,0.7,0.2,0.8,0.4c0.1,0.2,0.2,0.5,0,1l-3.6,12.4C211.1,15.3,210.7,15.6,210.1,15.6z M205,14.6h5c0.1,0,0.2,0,0.2-0.2L214,2
				l-5.1,0c0,0-0.1,0-0.2,0.2L205,14.6z"/>
		</g>
		<g>
			<path class="st0" d="M228,54h-6.5c-4.9,0-7.1-2.1-7.1-6.7v-6.6c0-0.6,0.4-0.9,1-0.9h5.8c0.6,0,1,0.4,1,0.9v5.8l4.9,0l0-12.1
				l-5.7,0c-4.7,0-7-1-7-6.7V14.3c0-4.6,2.3-6.8,7-6.8h6.5c4.7,0,7,2.2,7,6.7v6c0,0.6-0.4,0.9-1,0.9h-5.8c-0.6,0-1-0.4-1-0.9V15
				l-4.9,0l0,12l5.7,0c4.8,0,7,2.1,7,6.7v13.6C234.9,52,232.8,54,228,54z M215.4,40.8l0,6.6c0,3.4,1,5.7,6.1,5.7h6.5
				c4.9,0,5.9-2.3,5.9-5.8V33.7c0-3.4-1-5.7-6-5.7H222c-0.5,0-0.8-0.3-0.8-0.8V14.8c0-0.5,0.3-0.8,0.8-0.8h5.3
				c0.5,0,0.8,0.3,0.8,0.8v5.4l5.8-0.1c0,0,0,0,0,0l0-5.9c0-4-1.8-5.7-6-5.7h-6.5c-4.1,0-6,1.8-6,5.8v13.5c0,4.8,1.5,5.7,6,5.7h5.9
				c0.5,0,0.8,0.3,0.8,0.8v12.4c0,0.5-0.3,0.8-0.8,0.8H222c-0.5,0-0.8-0.3-0.8-0.8v-6L215.4,40.8C215.4,40.8,215.4,40.8,215.4,40.8z
				"/>
		</g>
	</g>
</g>
</svg>
