<?xml version="1.0" encoding="utf-8"?>
<!-- Generator: Adobe Illustrator 28.0.0, SVG Export Plug-In . SVG Version: 6.00 Build 0)  -->
<svg version="1.1" id="Layer_1" xmlns="http://www.w3.org/2000/svg" xmlns:xlink="http://www.w3.org/1999/xlink" x="0px" y="0px"
	 viewBox="0 0 31.3 28.32" style="enable-background:new 0 0 31.3 28.32;" xml:space="preserve">
<style type="text/css">
	.st0{fill:#FFFFFF;}
</style>
<path class="st0" d="M30.44,0.07c-0.29,0.32-0.53,0.58-0.77,0.84c-2.07,2.21-4.14,4.42-6.21,6.63c-1.24,1.32-2.47,2.64-3.71,3.95
	c-0.17,0.17-0.17,0.28-0.03,0.48c1.81,2.53,3.61,5.07,5.42,7.6c1.58,2.21,3.15,4.42,4.73,6.63c0.4,0.57,0.8,1.13,1.2,1.7
	c0.07,0.1,0.12,0.22,0.23,0.41c-0.39,0-0.7,0-1.01,0c-3.17,0-6.35-0.01-9.52,0c-0.39,0-0.63-0.11-0.86-0.43
	c-2.03-2.87-4.08-5.73-6.13-8.59c-0.18-0.25-0.37-0.49-0.65-0.87c-0.13,0.2-0.22,0.36-0.34,0.49c-2.34,2.5-4.68,5-7.02,7.5
	c-0.51,0.54-1.02,1.07-1.52,1.62c-0.19,0.2-0.39,0.28-0.66,0.28c-1.07-0.01-2.13-0.01-3.2-0.01c-0.1,0-0.2-0.02-0.38-0.03
	c0.11-0.14,0.17-0.22,0.23-0.29c1.96-2.1,3.91-4.21,5.87-6.31c0.93-1,1.89-1.97,2.83-2.96c0.77-0.82,1.53-1.65,2.3-2.47
	c0.19-0.2,0.1-0.33-0.02-0.5c-1.12-1.55-2.23-3.11-3.35-4.67C5.56,7.84,3.24,4.6,0.92,1.36C0.62,0.94,0.33,0.53,0,0.06
	c0.16-0.02,0.24-0.05,0.33-0.05c3.5,0,7,0,10.49-0.01c0.26,0,0.42,0.09,0.56,0.3c1.16,1.63,2.33,3.25,3.49,4.87
	c0.88,1.24,1.76,2.47,2.63,3.72c0.19,0.27,0.3,0.28,0.54,0.03c2.29-2.46,4.59-4.91,6.89-7.37c0.41-0.44,0.8-0.89,1.22-1.32
	c0.11-0.12,0.3-0.22,0.46-0.22C27.8,0,28.99,0.01,30.17,0.01C30.23,0.01,30.28,0.04,30.44,0.07z M25.62,25.32
	c-0.1-0.16-0.15-0.25-0.21-0.34c-0.63-0.89-1.26-1.78-1.89-2.66c-2.22-3.09-4.44-6.18-6.66-9.27c-2.33-3.25-4.66-6.5-6.98-9.75
	C9.73,3.08,9.56,2.97,9.27,2.97c-1.07,0.02-2.13,0.01-3.2,0.01C5.98,2.98,5.89,3,5.77,3.01C5.82,3.12,5.84,3.2,5.89,3.26
	c1.09,1.53,2.19,3.05,3.28,4.58c1.14,1.58,2.27,3.17,3.41,4.75c1.01,1.4,2.01,2.8,3.02,4.2c0.92,1.28,1.85,2.56,2.77,3.84
	c1.08,1.5,2.15,2.99,3.23,4.48c0.07,0.09,0.2,0.2,0.31,0.2C23.12,25.33,24.33,25.32,25.62,25.32z"/>
</svg>
