<?xml version="1.0" encoding="utf-8"?>
<!-- Generator: Adobe Illustrator 28.0.0, SVG Export Plug-In . SVG Version: 6.00 Build 0)  -->
<svg version="1.1" id="Layer_1" xmlns="http://www.w3.org/2000/svg" xmlns:xlink="http://www.w3.org/1999/xlink" x="0px" y="0px"
	 viewBox="0 0 30.44 21.45" style="enable-background:new 0 0 30.44 21.45;" xml:space="preserve">
<style type="text/css">
	.st0{fill:#FFFFFF;}
</style>
<path class="st0" d="M29.8,3.35c-0.35-1.32-1.38-2.36-2.69-2.71C24.74,0,15.22,0,15.22,0S5.7,0,3.33,0.64
	C2.02,0.99,0.99,2.03,0.64,3.35C0,5.74,0,10.72,0,10.72s0,4.99,0.64,7.37c0.35,1.32,1.38,2.36,2.69,2.71
	c2.37,0.64,11.89,0.64,11.89,0.64s9.52,0,11.89-0.64c1.31-0.35,2.34-1.39,2.69-2.71c0.64-2.39,0.64-7.37,0.64-7.37
	S30.44,5.74,29.8,3.35z M12.11,15.25l0-9.05l7.96,4.53L12.11,15.25z"/>
</svg>
