<?xml version="1.0" encoding="UTF-8"?><svg id="Layer_2" xmlns="http://www.w3.org/2000/svg" viewBox="0 0 392.36 99.7"><defs><style>.cls-1{fill:#090909;}</style></defs><g id="Layer_1-2"><path class="cls-1" d="M113.71,99.7v-36.24L83.94,0h27.62l14.82,40.01L141.33,0h27.35l-29.5,63.46v36.24h-25.46Z"/><path class="cls-1" d="M366.89,99.7v-39.88h-32.6v39.88h-25.46V0h25.46v37.46h32.6V0h25.46v99.7h-25.46Z"/><polygon class="cls-1" points="258.29 0 258.29 22.37 258.29 29.23 258.29 99.7 283.75 99.7 283.75 22.37 303.29 22.37 303.29 0 258.29 0"/><polygon class="cls-1" points="252.75 0 228.36 0 210.84 0 210.84 22.37 228.38 22.37 228.42 61.38 190.64 0 168.68 0 168.68 99.7 193.07 99.7 193.07 39.87 230.66 99.7 252.75 99.7 252.75 0 252.75 0"/><polygon class="cls-1" points="49.73 61.03 62.26 38.67 62.26 38.67 83.94 0 72.38 0 0 0 0 22.37 43.82 22.37 34.58 38.67 12.68 38.67 0 61.03 21.91 61.03 0 99.7 9.47 99.7 83.94 99.7 83.94 77.34 40.59 77.34 49.73 61.03 49.73 61.03"/></g></svg>