<?xml version="1.0" encoding="UTF-8"?><svg id="Layer_2" xmlns="http://www.w3.org/2000/svg" viewBox="0 0 110.18 55.72"><g id="Layer_1-2"><polygon points="20.4 47.77 20.4 0 16.32 0 16.32 9.06 16.32 9.06 16.32 12.34 5.64 9.48 5.64 13.7 16.32 16.56 16.32 16.56 16.32 47.77 20.4 47.77"/><rect y="0" width="4.08" height="47.76"/><path d="M1.32,51.94H.02v3.73h.59v-1.22h.72c.93,0,1.49-.46,1.49-1.25s-.53-1.25-1.49-1.25ZM1.32,53.97h-.72v-1.55h.72c.56,0,.91.24.91.77s-.32.78-.91.78Z"/><path d="M8.85,53.04c0-.71-.54-1.1-1.38-1.1h-1.34v3.72h.59v-1.5h.77l.72,1.5h.66l-.82-1.6c.3-.07.8-.34.8-1.02ZM7.47,53.68h-.75v-1.26h.75c.48,0,.81.2.81.63,0,.53-.41.63-.81.63Z"/><path d="M13.71,51.88c-1.15,0-1.72.83-1.72,1.93,0,1,.57,1.9,1.73,1.9,1.09,0,1.67-.86,1.67-1.97,0-1-.57-1.86-1.68-1.86ZM13.71,55.22c-.78,0-1.12-.67-1.12-1.4,0-.8.3-1.43,1.12-1.43.73,0,1.07.63,1.07,1.36,0,.8-.3,1.47-1.07,1.47Z"/><path d="M20.04,51.94h-1.3v3.73h.59v-1.22h.72c.93,0,1.49-.46,1.49-1.25s-.53-1.25-1.49-1.25ZM20.04,53.97h-.72v-1.55h.72c.56,0,.91.24.91.77s-.32.78-.91.78Z"/><polygon points="24.86 55.66 27.36 55.66 27.36 55.16 25.45 55.16 25.45 53.88 27.36 53.88 27.36 53.41 25.45 53.41 25.45 52.44 27.36 52.44 27.36 51.94 24.86 51.94 24.86 55.66"/><path d="M33.55,53.04c0-.71-.54-1.1-1.37-1.1h-1.34v3.72h.59v-1.5h.77l.72,1.5h.66l-.82-1.6c.3-.07.8-.34.8-1.02ZM32.18,53.68h-.76v-1.26h.75c.48,0,.82.2.82.63,0,.53-.41.63-.81.63Z"/><polygon points="36.53 52.44 37.64 52.44 37.64 55.66 38.23 55.66 38.23 52.44 39.34 52.44 39.34 51.93 36.53 51.93 36.53 52.44"/><polygon points="43.76 53.69 42.74 51.93 42.08 51.93 43.47 54.18 43.47 55.66 44.05 55.66 44.05 54.19 45.43 51.93 44.79 51.93 43.76 53.69"/><path d="M54.04,53.56l-.38-.11c-.36-.11-.59-.28-.59-.56,0-.35.38-.49.72-.49.43,0,.83.17,1.12.45v-.63c-.14-.11-.54-.32-1.12-.32-.68,0-1.3.31-1.3,1.01,0,.64.39.86.98,1.05l.34.1c.3.09.63.25.63.59s-.26.57-.77.57c-.48,0-.91-.22-1.2-.53v.64c.14.13.57.39,1.21.39.85,0,1.34-.49,1.34-1.1s-.39-.9-.98-1.07Z"/><path d="M59.91,51.88c-1.15,0-1.72.83-1.72,1.93,0,1,.57,1.9,1.72,1.9,1.1,0,1.67-.86,1.67-1.97,0-1-.57-1.86-1.68-1.86ZM59.91,55.22c-.78,0-1.12-.67-1.12-1.4,0-.8.3-1.43,1.12-1.43.72,0,1.07.63,1.07,1.36,0,.8-.3,1.47-1.07,1.47Z"/><polygon points="65.53 51.93 64.94 51.93 64.94 55.66 67.32 55.66 67.32 55.16 65.53 55.16 65.53 51.93"/><path d="M72.81,54.21c0,.49-.21,1.01-.88,1.01s-.88-.47-.88-1v-2.28h-.59v2.28c0,1,.59,1.51,1.47,1.51,1,0,1.47-.68,1.47-1.51v-2.28h-.59v2.27Z"/><polygon points="76.55 52.44 77.66 52.44 77.66 55.66 78.25 55.66 78.25 52.44 79.36 52.44 79.36 51.93 76.55 51.93 76.55 52.44"/><rect x="82.59" y="51.93" width=".59" height="3.73"/><path d="M88.27,51.88c-1.15,0-1.72.83-1.72,1.93,0,1,.57,1.9,1.73,1.9,1.09,0,1.67-.86,1.67-1.97,0-1-.57-1.86-1.68-1.86ZM88.27,55.22c-.78,0-1.12-.67-1.12-1.4,0-.8.29-1.43,1.12-1.43.72,0,1.07.63,1.07,1.36,0,.8-.3,1.47-1.07,1.47Z"/><polygon points="95.66 54.73 93.82 51.93 93.3 51.93 93.3 55.66 93.89 55.66 93.89 52.94 95.67 55.66 96.23 55.66 96.23 51.93 95.66 51.93 95.66 54.73"/><path d="M101.22,53.56l-.38-.11c-.36-.11-.59-.28-.59-.56,0-.35.37-.49.71-.49.43,0,.83.17,1.13.45v-.63c-.14-.11-.54-.32-1.13-.32-.69,0-1.3.31-1.3,1.01,0,.64.39.86.98,1.05l.34.1c.3.09.64.25.64.59s-.26.57-.77.57c-.48,0-.91-.22-1.2-.53v.64c.15.13.58.39,1.22.39.85,0,1.34-.49,1.34-1.1s-.39-.9-.98-1.07Z"/><rect x="97.94" y="0" width="4.08" height="47.76"/><polygon points="77.53 23.88 77.54 23.88 85.5 15.92 89.78 11.64 93.86 7.56 93.86 7.56 93.86 1.79 93.86 0 89.78 0 89.78 5.87 79.72 15.92 77.54 18.11 77.53 18.12 77.53 0 73.45 0 73.45 47.76 77.53 47.76 77.53 23.88"/><polygon points="89.78 47.76 93.86 47.76 93.86 24.29 93.46 23.89 86.6 17.02 83.71 19.92 89.78 25.98 89.78 47.76"/><polygon points="44.89 20.65 44.89 20.65 44.89 14.88 44.89 0 40.8 0 40.8 18.96 36.73 23.04 36.73 23.04 34.68 25.08 33.27 23.66 32.65 23.04 32.65 23.04 32.65 23.04 28.56 18.96 28.56 0 24.49 0 24.49 14.88 24.48 14.88 24.48 20.65 24.49 20.65 24.49 20.65 28.56 24.73 28.56 24.73 31.8 27.96 31.8 27.96 31.8 27.97 32.64 28.81 32.64 32.89 32.65 32.89 32.65 47.76 36.73 47.76 36.73 28.81 36.73 28.81 37.57 27.97 40.8 24.73 42.5 23.04 44.89 20.65"/><polygon points="61.21 2.04 59.17 0 59.17 0 59.17 0 59.17 0 59.17 0 57.13 2.04 53.05 6.12 53.05 6.12 52.56 6.61 48.97 10.2 48.97 10.2 48.97 10.2 48.97 15.98 48.97 15.98 51.5 18.5 53.05 20.05 53.05 20.05 57.13 24.13 57.13 24.13 57.13 24.14 61.21 28.21 61.21 28.21 61.21 28.21 65.29 32.3 65.29 35.88 61.21 39.95 61.21 39.95 59.17 42 57.13 39.96 53.05 35.88 53.05 35.88 53.05 32.3 49.47 32.3 49.47 32.3 48.97 32.3 48.97 32.3 48.97 32.3 48.97 35.88 48.97 35.88 48.97 35.88 48.97 37.57 53.05 41.65 53.05 41.65 53.05 41.65 53.05 41.65 57.13 45.73 59.17 47.77 59.17 47.76 59.17 47.77 61.21 45.73 65.29 41.64 65.29 41.65 69.37 37.57 69.37 37.57 69.37 36.38 69.37 31.79 69.37 30.61 65.29 26.52 61.21 22.44 57.13 18.36 53.05 14.28 53.05 11.89 57.13 7.81 57.13 7.81 58.26 6.68 59.17 5.77 59.17 5.77 61.21 7.81 61.21 7.81 61.21 7.82 65.29 11.89 65.29 11.89 65.29 15.47 65.29 15.47 68.87 15.47 69.37 15.47 69.37 15.47 69.37 11.89 69.37 10.2 65.29 6.12 61.21 2.04"/><polygon points="106.1 .27 106.7 .27 106.7 2.02 107.02 2.02 107.02 .27 107.62 .27 107.62 0 106.1 0 106.1 .27"/><polygon points="109.82 0 109.09 1.47 108.34 0 107.99 0 107.99 2.02 108.3 2.02 108.3 .54 109.06 2.05 109.11 2.05 109.87 .53 109.87 2.02 110.18 2.02 110.18 0 109.82 0"/></g></svg>