<?xml version="1.0" encoding="UTF-8"?><svg id="Layer_2" xmlns="http://www.w3.org/2000/svg" viewBox="0 0 110.18 176.36"><g id="Layer_1-2"><polygon points="2.6 78.54 .61 78.54 .61 77.2 2.6 77.2 2.6 76.71 .61 76.71 .61 75.7 2.6 75.7 2.6 75.18 0 75.18 0 79.07 2.6 79.07 2.6 78.54"/><path d="M8.7,77.98c0-.64-.41-.93-1.03-1.11l-.4-.12c-.38-.12-.62-.29-.62-.59,0-.37.38-.51.74-.51.45,0,.87.18,1.17.47v-.66c-.14-.12-.56-.34-1.17-.34-.71,0-1.35.33-1.35,1.07,0,.67.41.9,1.03,1.09l.35.11c.31.1.66.26.66.62s-.27.6-.8.6c-.5,0-.95-.23-1.25-.55v.67c.15.14.6.41,1.27.41.89,0,1.4-.52,1.4-1.14Z"/><polygon points="12.94 79.06 13.55 79.06 13.55 75.7 14.72 75.7 14.72 75.18 11.78 75.18 11.78 75.7 12.94 75.7 12.94 79.06"/><path d="M17.93,79.12c.26,0,.45-.17.45-.44s-.19-.45-.45-.45-.45.18-.45.45.18.44.45.44Z"/><path d="M80.75,75.49v.61c.21-.14.69-.41,1.08-.41.5,0,.79.25.79.75,0,.55-.53,1.12-1.44,2.05-.01.01-.02.02-.03.03l-.52.53h0v.02h0s2.72,0,2.72,0h0s.03,0,.03,0v-.51h-1.55c.86-.86,1.43-1.43,1.43-2.17s-.46-1.26-1.39-1.26c-.48,0-.94.21-1.13.32v.05Z"/><polygon points="66.4 59.58 66.4 53.24 66.4 53.24 66.4 41.3 60.28 41.3 60.28 59.8 44.25 55.51 44.25 61.85 60.28 66.14 60.28 112.94 66.4 112.94 66.4 67.78 66.4 67.78 66.4 61.45 66.4 61.45 66.4 59.58 66.4 59.58"/><rect x="35.79" y="41.3" width="6.12" height="71.65"/><polygon points="20.4 168.4 20.4 120.64 16.32 120.64 16.32 129.69 16.32 129.69 16.32 132.97 5.64 130.11 5.64 134.33 16.32 137.2 16.32 137.2 16.32 168.4 20.4 168.4"/><rect y="120.64" width="4.08" height="47.76"/><polygon points="21.44 36.63 25.77 40.96 50.25 16.47 51.1 15.63 55.43 11.3 62.4 4.33 58.07 0 51.1 6.97 51.1 6.97 44.13 0 39.8 4.33 46.77 11.3 46.77 11.3 21.44 36.63"/><rect x="63.7" y="10.21" width="6.12" height="33.48" transform="translate(.49 55.1) rotate(-45)"/><path d="M1.32,172.57H.02v3.73h.59v-1.22h.72c.93,0,1.49-.46,1.49-1.25s-.53-1.25-1.49-1.25ZM1.32,174.6h-.72v-1.55h.72c.56,0,.91.24.91.77s-.32.78-.91.78Z"/><path d="M8.85,173.67c0-.71-.54-1.1-1.38-1.1h-1.34v3.72h.59v-1.5h.77l.72,1.5h.66l-.82-1.6c.3-.07.8-.34.8-1.02ZM7.47,174.31h-.75v-1.26h.75c.48,0,.81.2.81.63,0,.53-.41.63-.81.63Z"/><path d="M13.71,172.52c-1.15,0-1.72.83-1.72,1.93,0,1,.57,1.9,1.73,1.9,1.09,0,1.67-.86,1.67-1.97,0-1-.57-1.86-1.68-1.86ZM13.71,175.85c-.78,0-1.12-.67-1.12-1.4,0-.8.3-1.43,1.12-1.43.73,0,1.07.63,1.07,1.36,0,.8-.3,1.47-1.07,1.47Z"/><path d="M20.04,172.57h-1.3v3.73h.59v-1.22h.72c.93,0,1.49-.46,1.49-1.25s-.53-1.25-1.49-1.25ZM20.04,174.6h-.72v-1.55h.72c.56,0,.91.24.91.77s-.32.78-.91.78Z"/><polygon points="24.86 176.3 27.35 176.3 27.35 175.8 25.45 175.8 25.45 174.52 27.35 174.52 27.35 174.04 25.45 174.04 25.45 173.07 27.35 173.07 27.35 172.57 24.86 172.57 24.86 176.3"/><path d="M33.55,173.67c0-.71-.54-1.1-1.37-1.1h-1.34v3.72h.59v-1.5h.77l.72,1.5h.66l-.82-1.6c.3-.07.8-.34.8-1.02ZM32.18,174.31h-.76v-1.26h.75c.48,0,.82.2.82.63,0,.53-.41.63-.81.63Z"/><polygon points="36.53 173.07 37.64 173.07 37.64 176.3 38.23 176.3 38.23 173.07 39.34 173.07 39.34 172.57 36.53 172.57 36.53 173.07"/><polygon points="43.76 174.32 42.74 172.57 42.08 172.57 43.47 174.81 43.47 176.3 44.05 176.3 44.05 174.82 45.43 172.57 44.79 172.57 43.76 174.32"/><path d="M54.04,174.19l-.38-.11c-.36-.11-.59-.28-.59-.56,0-.35.38-.49.72-.49.43,0,.83.17,1.12.45v-.63c-.14-.11-.54-.32-1.12-.32-.68,0-1.3.31-1.3,1.01,0,.64.39.86.98,1.05l.34.1c.3.09.63.25.63.59s-.26.57-.77.57c-.48,0-.91-.22-1.2-.53v.64c.14.13.57.39,1.21.39.85,0,1.34-.49,1.34-1.1s-.39-.9-.98-1.07Z"/><path d="M59.91,172.52c-1.15,0-1.72.83-1.72,1.93,0,1,.57,1.9,1.72,1.9,1.1,0,1.67-.86,1.67-1.97,0-1-.57-1.86-1.68-1.86ZM59.91,175.85c-.78,0-1.12-.67-1.12-1.4,0-.8.3-1.43,1.12-1.43.72,0,1.07.63,1.07,1.36,0,.8-.3,1.47-1.07,1.47Z"/><polygon points="65.53 172.57 64.94 172.57 64.94 176.29 67.32 176.29 67.32 175.8 65.53 175.8 65.53 172.57"/><path d="M72.81,174.84c0,.49-.21,1.01-.88,1.01s-.88-.47-.88-1v-2.28h-.59v2.28c0,1,.59,1.51,1.47,1.51,1,0,1.47-.68,1.47-1.51v-2.28h-.59v2.27Z"/><polygon points="76.55 173.07 77.66 173.07 77.66 176.3 78.25 176.3 78.25 173.07 79.36 173.07 79.36 172.57 76.55 172.57 76.55 173.07"/><rect x="82.59" y="172.57" width=".59" height="3.73"/><path d="M88.27,172.52c-1.15,0-1.72.83-1.72,1.93,0,1,.57,1.9,1.73,1.9,1.09,0,1.67-.86,1.67-1.97,0-1-.57-1.86-1.68-1.86ZM88.27,175.85c-.78,0-1.12-.67-1.12-1.4,0-.8.29-1.43,1.12-1.43.72,0,1.07.63,1.07,1.36,0,.8-.3,1.47-1.07,1.47Z"/><polygon points="95.66 175.36 93.82 172.57 93.3 172.57 93.3 176.3 93.89 176.3 93.89 173.58 95.67 176.3 96.23 176.3 96.23 172.57 95.66 172.57 95.66 175.36"/><path d="M101.22,174.19l-.38-.11c-.36-.11-.59-.28-.59-.56,0-.35.37-.49.71-.49.43,0,.83.17,1.13.45v-.63c-.14-.11-.54-.32-1.13-.32-.69,0-1.3.31-1.3,1.01,0,.64.39.86.98,1.05l.34.1c.3.09.64.25.64.59s-.26.57-.77.57c-.48,0-.91-.22-1.2-.53v.64c.15.13.58.39,1.22.39.85,0,1.34-.49,1.34-1.1s-.39-.9-.98-1.07Z"/><rect x="97.94" y="120.64" width="4.08" height="47.76"/><polygon points="77.53 144.52 77.54 144.52 85.5 136.56 89.78 132.28 93.86 128.19 93.86 128.19 93.86 122.42 93.86 120.64 89.78 120.64 89.78 126.5 79.72 136.56 77.54 138.74 77.53 138.75 77.53 120.63 73.45 120.63 73.45 168.4 77.53 168.4 77.53 144.52"/><polygon points="89.78 168.4 93.86 168.4 93.86 144.92 93.46 144.52 86.6 137.66 83.71 140.55 89.78 146.61 89.78 168.4"/><polygon points="44.89 141.28 44.89 141.28 44.89 135.51 44.89 120.64 40.8 120.64 40.8 139.59 36.73 143.67 36.73 143.67 34.68 145.71 33.26 144.29 32.65 143.67 32.65 143.67 32.65 143.67 28.56 139.59 28.56 120.64 24.49 120.64 24.49 135.52 24.48 135.51 24.48 141.28 24.49 141.28 24.49 141.28 28.56 145.36 28.56 145.36 31.8 148.6 31.8 148.6 31.8 148.6 32.64 149.44 32.64 153.52 32.65 153.52 32.65 168.4 36.73 168.4 36.73 149.44 36.73 149.44 37.57 148.6 40.8 145.36 42.46 143.71 44.89 141.28"/><polygon points="61.21 122.68 59.17 120.64 59.17 120.64 59.17 120.64 59.17 120.64 59.17 120.63 57.13 122.67 53.05 126.75 53.05 126.75 52.56 127.24 48.97 130.83 48.97 130.84 48.97 130.84 48.97 136.61 48.97 136.61 51.53 139.17 53.05 140.69 53.05 140.69 57.13 144.76 57.13 144.77 57.13 144.77 61.21 148.85 61.21 148.85 61.21 148.85 65.29 152.93 65.29 156.51 61.21 160.59 61.21 160.59 59.17 162.63 57.13 160.59 53.05 156.51 53.05 156.51 53.05 152.93 49.47 152.93 49.47 152.93 48.97 152.93 48.97 152.93 48.97 152.93 48.97 156.51 48.97 156.51 48.97 156.51 48.97 158.2 53.05 162.28 53.05 162.28 53.05 162.28 53.05 162.28 57.13 166.36 59.17 168.4 59.17 168.4 59.17 168.4 61.21 166.36 65.29 162.28 65.29 162.28 69.37 158.2 69.37 158.2 69.37 157.01 69.37 152.43 69.37 151.24 65.29 147.16 61.21 143.07 57.13 138.99 53.05 134.91 53.05 132.53 57.13 128.44 57.13 128.45 58.27 127.31 59.17 126.41 59.17 126.41 61.21 128.45 61.21 128.45 61.21 128.45 65.29 132.53 65.29 132.53 65.29 136.11 65.29 136.11 68.87 136.11 69.37 136.11 69.37 136.11 69.37 132.53 69.37 130.84 65.29 126.75 61.21 122.68"/><polygon points="106.1 120.91 106.7 120.91 106.7 122.65 107.02 122.65 107.02 120.91 107.62 120.91 107.62 120.64 106.1 120.64 106.1 120.91"/><polygon points="109.82 120.64 109.09 122.11 108.34 120.64 107.99 120.64 107.99 122.65 108.3 122.65 108.3 121.17 109.06 122.68 109.11 122.68 109.87 121.16 109.87 122.65 110.18 122.65 110.18 120.64 109.82 120.64"/><path d="M88.12,79.12s.02,0,.04,0c.02,0,.04,0,.05,0,1.02,0,1.46-.94,1.46-1.99s-.44-2.02-1.46-2.02c-.27,0-.5.07-.69.2-.58.3-.84,1.05-.84,1.84,0,1.03.43,1.96,1.44,1.96ZM88.12,75.67c.62,0,.79.72.79,1.49s-.16,1.4-.73,1.45c-.61-.02-.78-.64-.78-1.47,0-.64.13-1.24.52-1.44.06-.02.12-.03.2-.03Z"/><path d="M95.46,79.07h.18v-.51h-1.55c.86-.86,1.43-1.43,1.43-2.17s-.46-1.26-1.39-1.26c-.26,0-.51.06-.72.14-.25.07-.45.17-.56.23v.61s.1-.06.15-.09v.06c.15-.1.42-.26.71-.35.08-.02.15-.03.22-.03.5,0,.79.25.79.75,0,.56-.54,1.14-1.48,2.09l-.52.52v.02h2.72Z"/><path d="M101.32,77.9c0-.76-.64-1.05-1.15-1.15l1.15-1.48v-.04h-2.49v.52h1.51l-.99,1.33c.71.03,1.36.29,1.36.82,0,.45-.3.72-.79.72-.4,0-.89-.19-1.09-.38v.61c.17.1.61.28,1.1.28.86,0,1.39-.54,1.39-1.22Z"/></g></svg>