<?xml version="1.0" encoding="UTF-8"?><svg id="Layer_2" xmlns="http://www.w3.org/2000/svg" viewBox="0 0 494.22 201.56"><defs><style>.cls-1{fill:#090909;}</style></defs><g id="Layer_1-2"><path class="cls-1" d="M0,0v201.56h494.22V0H0ZM25.46,176.09V25.46h443.29v150.63H25.46Z"/><path class="cls-1" d="M164.64,150.63v-36.24l-29.77-63.46h27.62l14.82,40.01,14.96-40.01h27.35l-29.5,63.46v36.24h-25.46Z"/><path class="cls-1" d="M417.82,150.63v-39.88h-32.6v39.88h-25.46V50.93h25.46v37.46h32.6v-37.46h25.46v99.7h-25.46Z"/><polygon class="cls-1" points="309.22 50.93 309.22 73.3 309.22 80.16 309.22 150.63 334.68 150.63 334.68 73.3 354.22 73.3 354.22 50.93 309.22 50.93"/><polygon class="cls-1" points="303.68 50.93 279.29 50.93 261.77 50.93 261.77 73.3 279.31 73.3 279.35 112.31 241.57 50.93 219.61 50.93 219.61 150.63 244 150.63 244 90.8 281.59 150.63 303.68 150.63 303.68 50.93 303.68 50.93"/><polygon class="cls-1" points="100.66 111.96 113.19 89.6 113.19 89.6 134.87 50.93 123.31 50.93 50.93 50.93 50.93 73.3 94.75 73.3 85.51 89.6 63.61 89.6 50.93 111.96 72.84 111.96 50.93 150.63 60.4 150.63 134.87 150.63 134.87 128.26 91.52 128.26 100.66 111.96 100.66 111.96"/></g></svg>