<?xml version="1.0" encoding="UTF-8"?><svg id="Layer_2" xmlns="http://www.w3.org/2000/svg" viewBox="0 0 201.56 278.24"><defs><style>.cls-1{fill:#090909;}</style></defs><g id="Layer_1-2"><path class="cls-1" d="M58.42,278.24v-18.62l-15.3-32.6h14.19l7.61,20.56,7.68-20.56h14.05l-15.16,32.6v18.62h-13.08Z"/><path class="cls-1" d="M188.48,278.24v-20.49h-16.75v20.49h-13.08v-51.22h13.08v19.24h16.75v-19.24h13.08v51.22h-13.08Z"/><polygon class="cls-1" points="132.69 227.02 132.69 238.51 132.69 242.04 132.69 278.24 145.77 278.24 145.77 238.51 155.8 238.51 155.8 227.02 132.69 227.02"/><polygon class="cls-1" points="129.84 227.02 117.31 227.02 108.31 227.02 108.31 238.51 117.32 238.51 117.34 258.55 97.93 227.02 86.65 227.02 86.65 278.24 99.18 278.24 99.18 247.5 118.49 278.24 129.84 278.24 129.84 227.02 129.84 227.02"/><polygon class="cls-1" points="25.54 258.38 31.99 246.88 31.99 246.88 43.12 227.02 37.18 227.02 0 227.02 0 238.51 22.51 238.51 17.77 246.88 6.51 246.88 0 258.38 11.26 258.38 0 278.24 4.86 278.24 43.12 278.24 43.12 266.75 20.85 266.75 25.54 258.38 25.54 258.38"/><path class="cls-1" d="M0,0v201.56h201.56V0H0ZM176.09,176.09H25.47V25.47h150.63v150.63Z"/><polygon class="cls-1" points="108.54 111.96 121.07 89.6 121.07 89.6 142.75 50.93 131.19 50.93 58.81 50.93 58.81 73.3 102.63 73.3 93.39 89.6 71.49 89.6 58.81 111.96 80.72 111.96 58.81 150.63 68.28 150.63 142.75 150.63 142.75 128.27 99.4 128.27 108.54 111.96 108.54 111.96"/></g></svg>