<?xml version="1.0" encoding="UTF-8"?>
<svg xmlns="http://www.w3.org/2000/svg" version="1.1" viewBox="0 0 932.2 120.1">
  <defs>
    <style>
      .cls-1 {
        fill: #fff;
      }

      .cls-2 {
        fill: #383838;
      }

      .cls-3 {
        fill: #f7f9f9;
      }

      .cls-4 {
        fill: #00fff8;
      }
    </style>
  </defs>
  <!-- Generator: Adobe Illustrator 28.7.1, SVG Export Plug-In . SVG Version: 1.2.0 Build 142)  -->
  <g>
    <g id="Layer_1">
      <path class="cls-3" d="M-3177.2,633.8h15.2v36.8c0,6-.6,10.5-2,13.4-2.7,5.7-8.8,10.5-18.4,10.5s-20.2-7.2-20.2-19.9v-.4h16.2c.2,4.8,1.7,6.9,4.6,6.9s4.6-1.8,4.6-7.2v-40.1h0Z"/>
      <path class="cls-3" d="M-3161.9,665c0-18.4,13.3-32.3,31.4-32.3s31.5,13.4,31.5,30.5-13.7,31.3-30.8,31.3-32.1-11.9-32.1-29.5ZM-3114.3,663.7c0-9.3-6.7-17.6-16.3-17.6s-16.2,8-16.2,17.4,6.7,17.7,16.4,17.7,16-8,16-17.5h.1Z"/>
      <path class="cls-3" d="M-3064.4,693.4v-23.8h-19.5v23.8h-15.2v-59.6h15.2v22.4h19.5v-22.4h15.2v59.6h-15.2Z"/>
      <path class="cls-3" d="M-3008.8,693.4l-22.9-36.4.4,36.4h-14.6v-59.6h13.1l23.2,37.7-.6-37.7h14.6v59.6h-13.2,0Z"/>
      <path class="cls-3" d="M-2952.5,693.4l-2.9-8.6h-20.7l-3.1,8.6h-16.3l23.9-59.6h12l23.7,59.6h-16.6ZM-2965.6,652.4h-.2l-6.1,20.3h12.5l-6.1-20.3h0Z"/>
      <path class="cls-3" d="M-2936,693.4v-46.2h-11.8v-13.4h38.6v13.4h-11.7v46.2h-15.2.1Z"/>
      <path class="cls-3" d="M-2871.1,693.4v-23.8h-19.5v23.8h-15.2v-59.6h15.2v22.4h19.5v-22.4h15.2v59.6h-15.2Z"/>
      <path class="cls-3" d="M-2812.8,693.4l-2.9-8.6h-20.7l-3.1,8.6h-16.3l23.9-59.6h12l23.7,59.6h-16.6ZM-2825.9,652.4h-.2l-6.1,20.3h12.5l-6.1-20.3h-.1Z"/>
      <path class="cls-3" d="M-2759.3,693.4l-22.9-36.4.4,36.4h-14.6v-59.6h13.1l23.2,37.7-.6-37.7h14.6v59.6h-13.2Z"/>
      <path class="cls-3" d="M-2649.5,662.9c0,16-11.8,31.7-31.8,31.7s-31.6-13.8-31.6-31.2,14.6-30.7,31.9-30.7,26.4,9.1,29.8,21.1h-17.1c-2.8-4.9-7.4-7.7-13.1-7.7-9.6,0-16.3,7.7-16.3,17.3s6.3,17.9,16.3,17.9,12.4-3.5,14.3-9.6h-17.8v-12.2h35.4v3.4h0Z"/>
      <path class="cls-3" d="M-2616.1,693.4l-2.9-8.6h-20.7l-3.1,8.6h-16.3l23.9-59.6h12l23.7,59.6h-16.6ZM-2629.2,652.4h-.2l-6.1,20.3h12.5l-6.1-20.3h-.1Z"/>
      <path class="cls-3" d="M-2599.6,693.4v-59.6h15.2v46.2h17.6v13.4h-32.8Z"/>
      <path class="cls-3" d="M-2563.5,693.4v-59.6h19.1c4.3,0,7.4.2,9.5.7,6.8,1.5,12.4,6.8,12.4,14.8s-2.4,9.6-6.9,12.1c6.5,2.3,9.8,7,9.8,13.8s-2.4,10.9-6.9,14.1c-4.7,3.3-7.7,4-17.1,4h-19.9ZM-2542.8,656.4c3.8,0,5.8-1.6,5.8-4.8s-1.9-4.5-5.7-4.5h-6.1v9.3h6ZM-2541.1,680c4.3,0,6.9-1.9,6.9-5.7s-2.3-5.2-6.8-5.2h-7.9v10.9h7.8Z"/>
      <path class="cls-3" d="M-2491.3,693.4l-13.8-19.2h-.2v19.2h-14.6v-59.6h19.5c6.2,0,11,.8,14.1,2.2,6.4,2.9,11,9.9,11,18.4s-5.6,17.1-14.8,18.8l16.2,20.3h-17.4ZM-2499.6,663.8c6,0,9.7-2.8,9.7-8.5s-3.9-8.1-9.6-8.1h-5.8v16.6h5.7Z"/>
      <path class="cls-3" d="M-2474.1,693.4v-59.6h33.1v13.4h-18.5v9.3h18v13.4h-18v10.2h18.5v13.4h-33.1Z"/>
      <path class="cls-3" d="M-2398.1,693.4l-2.9-8.6h-20.7l-3.1,8.6h-16.3l23.9-59.6h12l23.7,59.6h-16.6ZM-2411.2,652.4h-.2l-6.1,20.3h12.5l-6.1-20.3h0Z"/>
      <path class="cls-3" d="M-2381.6,693.4v-46.2h-11.8v-13.4h38.6v13.4h-11.7v46.2h-15.2.1Z"/>
      <path class="cls-3" d="M-2316.7,693.4v-23.8h-19.5v23.8h-15.2v-59.6h15.2v22.4h19.5v-22.4h15.2v59.6h-15.2Z"/>
      <rect class="cls-3" x="-2700.5" y="366.1" width="3.3" height="39.1"/>
      <g>
        <path class="cls-1" d="M-2005.6,196.7v120.1h932.2v-120.1h-932.2ZM-1990.4,301.6v-89.7h475v89.7h-475Z"/>
        <g>
          <g>
            <path class="cls-2" d="M-1436.2,255.9c0,15.9-11.8,31.6-31.7,31.6s-31.5-13.8-31.5-31.1,14.5-30.6,31.8-30.6,26.3,9.1,29.7,21h-17c-2.8-4.9-7.4-7.7-13.1-7.7-9.6,0-16.2,7.7-16.2,17.2s6.3,17.8,16.2,17.8,12.4-3.5,14.2-9.6h-17.7v-12.2h35.3v3.4h0Z"/>
            <path class="cls-2" d="M-1403.1,286.3l-2.9-8.6h-20.6l-3.1,8.6h-16.2l23.8-59.4h12l23.6,59.4h-16.5ZM-1416,245.5h-.2l-6.1,20.2h12.5l-6.1-20.2h0Z"/>
            <path class="cls-2" d="M-1386.6,286.3v-59.4h15.1v46h17.5v13.4h-32.7Z"/>
            <path class="cls-2" d="M-1353.9,286.3v-59.3h19c4.3,0,7.4.2,9.5.7,6.8,1.5,12.4,6.8,12.4,14.7s-2.4,9.6-6.9,12.1c6.5,2.3,9.8,7,9.8,13.8s-2.4,10.9-6.9,14.1c-4.7,3.3-7.7,4-17,4h-19.8ZM-1333.3,249.6c3.8,0,5.8-1.6,5.8-4.8s-1.9-4.5-5.7-4.5h-6.1v9.3h6ZM-1331.6,273.1c4.3,0,6.9-1.9,6.9-5.7s-2.3-5.2-6.8-5.2h-7.9v10.9h7.8Z"/>
          </g>
          <path class="cls-2" d="M-1281.6,286.3l-13.8-19.1h-.2v19.1h-14.5v-59.4h19.4c6.2,0,11,.8,14.1,2.2,6.4,2.9,11,9.9,11,18.3s-5.6,17-14.7,18.7l16.1,20.2h-17.3ZM-1289.8,256.8c6,0,9.7-2.8,9.7-8.5s-3.9-8.1-9.6-8.1h-5.8v16.5h5.7Z"/>
          <path class="cls-2" d="M-1264.3,286.3v-59.4h33v13.4h-18.4v9.3h17.9v13.4h-17.9v10.2h18.4v13.4h-33Z"/>
          <path class="cls-2" d="M-1188.4,286.4l-2.9-8.6h-20.6l-3.1,8.6h-16.2l23.8-59.4h12l23.6,59.4h-16.5ZM-1201.4,245.6h-.2l-6.1,20.2h12.5l-6.1-20.2h0Z"/>
          <path class="cls-2" d="M-1171.9,286.4v-46h-11.8v-13.4h26.9v13.4h0v46h-15.1Z"/>
          <polygon class="cls-2" points="-1103.7 227 -1103.7 286.4 -1118.9 286.4 -1118.9 262.7 -1138.3 262.7 -1138.3 286.4 -1153.5 286.4 -1153.5 227 -1126.6 227 -1126.6 240.4 -1138.3 240.4 -1138.3 249.3 -1118.9 249.3 -1118.9 227 -1103.7 227"/>
        </g>
        <g>
          <path class="cls-1" d="M-1949.9,227.1h15.1v36.7c0,6-.6,10.5-2,13.4-2.7,5.7-8.8,10.5-18.3,10.5s-20.1-7.2-20.1-19.8v-.4h16.1c.2,4.8,1.7,6.9,4.6,6.9s4.6-1.8,4.6-7.2v-40h0Z"/>
          <path class="cls-1" d="M-1934.6,258.1c0-18.3,13.3-32.2,31.3-32.2s31.4,13.4,31.4,30.4-13.7,31.2-30.7,31.2-32-11.9-32-29.4ZM-1887.2,256.8c0-9.3-6.7-17.5-16.2-17.5s-16.1,8-16.1,17.3,6.7,17.6,16.3,17.6,15.9-8,15.9-17.4h0Z"/>
          <path class="cls-1" d="M-1837.5,286.4v-23.7h-19.4v23.7h-15.1v-59.4h15.1v22.3h19.4v-22.3h15.1v59.4h-15.1Z"/>
          <path class="cls-1" d="M-1782.1,286.4l-22.8-36.3.4,36.3h-14.5v-59.4h13.1l23.1,37.6-.6-37.6h14.5v59.4h-13.2Z"/>
          <path class="cls-1" d="M-1726,286.4l-2.9-8.6h-20.6l-3.1,8.6h-16.2l23.8-59.4h12l23.6,59.4h-16.5ZM-1739,245.6h-.2l-6.1,20.2h12.5l-6.1-20.2h0Z"/>
          <path class="cls-1" d="M-1598.4,286.4l-2.9-8.6h-20.6l-3.1,8.6h-16.2l23.8-59.4h12l23.6,59.4h-16.5ZM-1611.5,245.6h-.2l-6.1,20.2h12.5l-6.1-20.2h0Z"/>
          <path class="cls-1" d="M-1545.1,286.4l-22.8-36.3.4,36.3h-14.5v-59.4h13.1l23.1,37.6-.6-37.6h14.5v59.4h-13.2Z"/>
          <path class="cls-1" d="M-1709.5,286.4v-46h-11.8v-13.4h26.9v13.4h0v46h-15.1Z"/>
          <path class="cls-1" d="M-1656.5,286.4v-23.7h-19.4v23.7h-15.1v-59.4h15.1v22.3h19.4v-22.3h15.1v59.4h-15.1Z"/>
          <rect class="cls-1" x="-1675.9" y="227" width="11.8" height="13.4"/>
        </g>
      </g>
      <rect class="cls-1" x="-1391.8" y="340.9" width="15.2" height="15.2"/>
      <rect class="cls-1" x="-1376.6" y="342.2" width="15.2" height="12.5"/>
      <rect class="cls-4" x="-1551" y="789.7" width="447.2" height="244.1"/>
      <g>
        <path class="cls-1" d="M589.6,48.8h-.3l-6.1,20.2h12.5l-6.1-20.2ZM589.6,48.8h-.3l-6.1,20.2h12.5l-6.1-20.2ZM589.6,48.8h-.3l-6.1,20.2h12.5l-6.1-20.2ZM672.3,43.6h-6.1v9.3h6c3.8,0,5.8-1.6,5.8-4.8s-1.9-4.5-5.7-4.5ZM674,65.6h-7.9v10.9h7.8c4.3,0,6.9-1.9,6.9-5.7s-2.3-5.2-6.8-5.2ZM674,65.6h-7.9v10.9h7.8c4.3,0,6.9-1.9,6.9-5.7s-2.3-5.2-6.8-5.2ZM672.3,43.6h-6.1v9.3h6c3.8,0,5.8-1.6,5.8-4.8s-1.9-4.5-5.7-4.5ZM589.6,48.8h-.3l-6.1,20.2h12.5l-6.1-20.2ZM589.6,48.8h-.3l-6.1,20.2h12.5l-6.1-20.2ZM672.3,43.6h-6.1v9.3h6c3.8,0,5.8-1.6,5.8-4.8s-1.9-4.5-5.7-4.5ZM674,65.6h-7.9v10.9h7.8c4.3,0,6.9-1.9,6.9-5.7s-2.3-5.2-6.8-5.2ZM715.9,43.6h-5.8v16.5h5.7c6,0,9.7-2.8,9.7-8.5s-3.9-8.1-9.6-8.1ZM715.9,43.6h-5.8v16.5h5.7c6,0,9.7-2.8,9.7-8.5s-3.9-8.1-9.6-8.1ZM674,65.6h-7.9v10.9h7.8c4.3,0,6.9-1.9,6.9-5.7s-2.3-5.2-6.8-5.2ZM672.3,43.6h-6.1v9.3h6c3.8,0,5.8-1.6,5.8-4.8s-1.9-4.5-5.7-4.5ZM589.6,48.8h-.3l-6.1,20.2h12.5l-6.1-20.2ZM589.6,48.8h-.3l-6.1,20.2h12.5l-6.1-20.2ZM672.3,43.6h-6.1v9.3h6c3.8,0,5.8-1.6,5.8-4.8s-1.9-4.5-5.7-4.5ZM674,65.6h-7.9v10.9h7.8c4.3,0,6.9-1.9,6.9-5.7s-2.3-5.2-6.8-5.2ZM715.9,43.6h-5.8v16.5h5.7c6,0,9.7-2.8,9.7-8.5s-3.9-8.1-9.6-8.1ZM804.3,48.9h-.3l-6.1,20.2h12.5l-6.1-20.2ZM804.3,48.9h-.3l-6.1,20.2h12.5l-6.1-20.2ZM715.9,43.6h-5.8v16.5h5.7c6,0,9.7-2.8,9.7-8.5s-3.9-8.1-9.6-8.1ZM674,65.6h-7.9v10.9h7.8c4.3,0,6.9-1.9,6.9-5.7s-2.3-5.2-6.8-5.2ZM672.3,43.6h-6.1v9.3h6c3.8,0,5.8-1.6,5.8-4.8s-1.9-4.5-5.7-4.5ZM589.6,48.8h-.3l-6.1,20.2h12.5l-6.1-20.2ZM589.6,48.8h-.3l-6.1,20.2h12.5l-6.1-20.2ZM672.3,43.6h-6.1v9.3h6c3.8,0,5.8-1.6,5.8-4.8s-1.9-4.5-5.7-4.5ZM674,65.6h-7.9v10.9h7.8c4.3,0,6.9-1.9,6.9-5.7s-2.3-5.2-6.8-5.2ZM715.9,43.6h-5.8v16.5h5.7c6,0,9.7-2.8,9.7-8.5s-3.9-8.1-9.6-8.1ZM804.3,48.9h-.3l-6.1,20.2h12.5l-6.1-20.2ZM804.3,48.9h-.3l-6.1,20.2h12.5l-6.1-20.2ZM715.9,43.6h-5.8v16.5h5.7c6,0,9.7-2.8,9.7-8.5s-3.9-8.1-9.6-8.1ZM674,65.6h-7.9v10.9h7.8c4.3,0,6.9-1.9,6.9-5.7s-2.3-5.2-6.8-5.2ZM678,48.1c0-3.2-1.9-4.5-5.7-4.5h-6.1v9.3h6c3.8,0,5.8-1.6,5.8-4.8ZM589.3,48.8l-6.1,20.2h12.5l-6.1-20.2h-.3ZM0,0v120.1h932.2V0H0ZM490.2,104.9H15.2V15.2h475v89.7ZM848.8,89.7h-31.7l-2.9-8.6h-20.6l-3.1,8.6h-66.6c0,0-13.8-19.2-13.8-19.2h-.2v19.1h-14.5v-18c0,6.8-2.4,10.9-6.9,14.1-4.7,3.3-7.7,4-17,4h-69.1l-2.9-8.6h-20.6l-3.1,8.6h-16.2l6.8-17c-4.6,10.3-14.6,18.2-28.8,18.2s-31.5-13.8-31.5-31.1,14.5-30.6,31.8-30.6,26.3,9.1,29.7,21h-17c-2.8-4.9-7.4-7.7-13.1-7.7-9.6,0-16.2,7.7-16.2,17.2s6.3,17.8,16.2,17.8,12.4-3.5,14.2-9.6h-17.7v-12.2h35.3v3.4c0,3.8-.7,7.5-1.9,11l16-40h12l23.6,59.4V30.2h15.1v46h17.5V30.3h19c4.3,0,7.4.2,9.5.7,6.8,1.5,12.3,6.8,12.3,14.8s-2.4,9.6-6.9,12.1c6.5,2.3,9.8,7,9.8,13.8V30.2h19.4c6.2,0,11,.8,14.1,2.2,6.4,2.9,11,9.9,11,18.3s-5.6,17-14.8,18.7l16.1,20.2V30.2h33v13.4h-18.4v9.3h17.9v13.4h-17.9v10.2h18.4v13.3l23.8-59.4h12l23.6,59.4v-46h-11.8v-13.3h26.9v59.4ZM901.8,89.7h-15.1v-23.7h-19.4v23.7h-15.1V30.3h26.9v13.3h-11.8v9h19.4v-22.3h15.1v59.4ZM804,48.9l-6.1,20.2h12.5l-6.1-20.2h-.3ZM715.9,43.6h-5.8v16.5h5.7c6,0,9.7-2.8,9.7-8.5s-3.9-8.1-9.6-8.1ZM674,65.6h-7.9v10.9h7.8c4.3,0,6.9-1.9,6.9-5.7s-2.3-5.2-6.8-5.2ZM678,48.1c0-3.2-1.9-4.5-5.7-4.5h-6.1v9.3h6c3.8,0,5.8-1.6,5.8-4.8ZM589.3,48.8l-6.1,20.2h12.5l-6.1-20.2h-.3ZM589.6,48.8h-.3l-6.1,20.2h12.5l-6.1-20.2ZM672.3,43.6h-6.1v9.3h6c3.8,0,5.8-1.6,5.8-4.8s-1.9-4.5-5.7-4.5ZM674,65.6h-7.9v10.9h7.8c4.3,0,6.9-1.9,6.9-5.7s-2.3-5.2-6.8-5.2ZM715.9,43.6h-5.8v16.5h5.7c6,0,9.7-2.8,9.7-8.5s-3.9-8.1-9.6-8.1ZM804.3,48.9h-.3l-6.1,20.2h12.5l-6.1-20.2ZM804.3,48.9h-.3l-6.1,20.2h12.5l-6.1-20.2ZM715.9,43.6h-5.8v16.5h5.7c6,0,9.7-2.8,9.7-8.5s-3.9-8.1-9.6-8.1ZM674,65.6h-7.9v10.9h7.8c4.3,0,6.9-1.9,6.9-5.7s-2.3-5.2-6.8-5.2ZM672.3,43.6h-6.1v9.3h6c3.8,0,5.8-1.6,5.8-4.8s-1.9-4.5-5.7-4.5ZM589.6,48.8h-.3l-6.1,20.2h12.5l-6.1-20.2ZM589.6,48.8h-.3l-6.1,20.2h12.5l-6.1-20.2ZM672.3,43.6h-6.1v9.3h6c3.8,0,5.8-1.6,5.8-4.8s-1.9-4.5-5.7-4.5ZM674,65.6h-7.9v10.9h7.8c4.3,0,6.9-1.9,6.9-5.7s-2.3-5.2-6.8-5.2ZM715.9,43.6h-5.8v16.5h5.7c6,0,9.7-2.8,9.7-8.5s-3.9-8.1-9.6-8.1ZM715.9,43.6h-5.8v16.5h5.7c6,0,9.7-2.8,9.7-8.5s-3.9-8.1-9.6-8.1ZM674,65.6h-7.9v10.9h7.8c4.3,0,6.9-1.9,6.9-5.7s-2.3-5.2-6.8-5.2ZM672.3,43.6h-6.1v9.3h6c3.8,0,5.8-1.6,5.8-4.8s-1.9-4.5-5.7-4.5ZM589.6,48.8h-.3l-6.1,20.2h12.5l-6.1-20.2ZM589.6,48.8h-.3l-6.1,20.2h12.5l-6.1-20.2ZM672.3,43.6h-6.1v9.3h6c3.8,0,5.8-1.6,5.8-4.8s-1.9-4.5-5.7-4.5ZM674,65.6h-7.9v10.9h7.8c4.3,0,6.9-1.9,6.9-5.7s-2.3-5.2-6.8-5.2ZM674,65.6h-7.9v10.9h7.8c4.3,0,6.9-1.9,6.9-5.7s-2.3-5.2-6.8-5.2ZM672.3,43.6h-6.1v9.3h6c3.8,0,5.8-1.6,5.8-4.8s-1.9-4.5-5.7-4.5ZM589.6,48.8h-.3l-6.1,20.2h12.5l-6.1-20.2ZM589.6,48.8h-.3l-6.1,20.2h12.5l-6.1-20.2ZM589.6,48.8h-.3l-6.1,20.2h12.5l-6.1-20.2ZM589.6,48.8h-.3l-6.1,20.2h12.5l-6.1-20.2ZM589.6,48.8h-.3l-6.1,20.2h12.5l-6.1-20.2Z"/>
        <g>
          <path class="cls-1" d="M55.7,30.4h15.1v36.7c0,6-.6,10.5-2,13.4-2.7,5.7-8.8,10.5-18.3,10.5s-20.1-7.2-20.1-19.8v-.4h16.1c.2,4.8,1.7,6.9,4.6,6.9s4.6-1.8,4.6-7.2V30.4h0Z"/>
          <path class="cls-1" d="M133.5,57.2c-1.2-15.9-14.1-28-31.3-28s-31.3,13.8-31.3,32.2,15,29.4,32,29.4,29.4-12.8,30.6-28.8c0-.8,0-1.6,0-2.4s0-1.6,0-2.4ZM118.3,60.1c0,9.5-6.3,17.4-15.9,17.4s-16.3-8.3-16.3-17.6,6.6-17.3,16.1-17.3,16.2,8.3,16.2,17.5h0Z"/>
          <path class="cls-1" d="M168.1,89.7v-23.7h-19.4v23.7h-15.1V30.3h15.1v22.3h19.4v-22.3h15.1v59.4h-15.1Z"/>
          <path class="cls-1" d="M223.5,89.7l-22.8-36.3.4,36.3h-14.5V30.3h13.1l23.1,37.6-.6-37.6h14.5v59.4h-13.2Z"/>
          <path class="cls-1" d="M296.1,89.4l-23.5-59.1h-12l-23.8,59.4h16.2l3.1-8.6h20.6l2.9,8.6h16.5v-.2ZM260.3,69.2l6.1-20.2h.3l6.1,20.2h-12.5Z"/>
          <path class="cls-1" d="M423.5,89.2l-23.4-58.9h-12l-23.8,59.4h16.2l3.1-8.6h20.6l2.9,8.6h16.5l-.2-.5ZM387.8,69.2l6.1-20.2h.3l6.1,20.2h-12.5Z"/>
          <path class="cls-1" d="M460.5,89.7l-22.8-36.3.4,36.3h-14.5V30.3h13.1l23.1,37.6-.6-37.6h14.5v59.4h-13.2Z"/>
          <path class="cls-1" d="M296.1,89.7v-46h-11.8v-13.4h26.9v13.4h0v46h-15.1Z"/>
          <polygon class="cls-1" points="364.2 30.3 364.2 89.7 349.1 89.7 349.1 66 329.6 66 329.6 89.7 314.5 89.7 314.5 30.3 341.4 30.3 341.4 43.6 329.6 43.6 329.6 52.6 349.1 52.6 349.1 30.3 364.2 30.3"/>
        </g>
      </g>
    </g>
  </g>
</svg>