<?xml version="1.0" encoding="UTF-8"?>
<svg xmlns="http://www.w3.org/2000/svg" version="1.1" viewBox="0 0 16 16">
  <defs>
    <style>
      .cls-1 {
        fill: #0d0f0e;
      }

      .cls-2 {
        fill: #fff;
      }
    </style>
  </defs>
  <!-- Generator: Adobe Illustrator 28.7.1, SVG Export Plug-In . SVG Version: 1.2.0 Build 142)  -->
  <g>
    <g id="Layer_1">
      <rect class="cls-1" x="-239.9" y="42.8" width="75.8" height="75.8"/>
      <polygon class="cls-2" points="-37.3 9.8 -35.3 6.2 -35.3 6.2 -31.9 0 -33.7 0 -45.3 0 -45.3 3.6 -38.3 3.6 -39.8 6.2 -43.3 6.2 -45.3 9.8 -41.8 9.8 -45.3 16 -43.8 16 -31.9 16 -31.9 12.4 -38.8 12.4 -37.3 9.8"/>
      <g>
        <path class="cls-2" d="M16,7.9c0,2.5-1.8,4.9-4.9,4.9s-4.9-2.2-4.9-4.8,2.3-4.8,5-4.8,4.1,1.4,4.6,3.3h-2.6c-.4-.8-1.2-1.2-2-1.2-1.5,0-2.5,1.2-2.5,2.7s1,2.8,2.5,2.8,1.9-.5,2.2-1.5h-2.8v-1.9h5.5v.5h0Z"/>
        <path class="cls-2" d="M4,3.2h2.4v5.8c0,1,0,1.7-.3,2.1-.4.9-1.4,1.7-2.9,1.7S0,11.7,0,9.7H0c0,0,2.6,0,2.6,0,0,.8.3,1.1.7,1.1s.7-.3.7-1.1V3.2h0Z"/>
      </g>
      <polygon class="cls-2" points="1.5 40.6 1.5 39.1 14.5 39.1 14.5 28.5 16 28.5 16 40.6 1.5 40.6"/>
      <polygon class="cls-2" points="50.2 6.8 50.2 8.3 37.1 8.3 37.1 18.9 35.7 18.9 35.7 6.8 50.2 6.8"/>
    </g>
  </g>
</svg>