<?xml version="1.0" encoding="UTF-8"?>
<svg xmlns="http://www.w3.org/2000/svg" version="1.1" viewBox="0 0 16 16">
  <defs>
    <style>
      .cls-1 {
        fill: #0d0f0e;
      }

      .cls-2 {
        fill: #fff;
      }
    </style>
  </defs>
  <!-- Generator: Adobe Illustrator 28.7.1, SVG Export Plug-In . SVG Version: 1.2.0 Build 142)  -->
  <g>
    <g id="Layer_1">
      <rect class="cls-1" x="-239.9" y="42.8" width="75.8" height="75.8"/>
      <polygon class="cls-2" points="-28.8 9.8 -26.8 6.2 -26.8 6.2 -23.4 0 -25.2 0 -36.8 0 -36.8 3.6 -29.8 3.6 -31.3 6.2 -34.8 6.2 -36.8 9.8 -33.3 9.8 -36.8 16 -35.3 16 -23.4 16 -23.4 12.4 -30.3 12.4 -28.8 9.8"/>
      <g>
        <path class="cls-2" d="M13.2,7.9c0,1.4-1,2.8-2.8,2.8s-2.7-1.2-2.7-2.7,1.3-2.7,2.8-2.7,2.3.8,2.6,1.8h-1.5c-.2-.4-.6-.7-1.1-.7-.8,0-1.4.7-1.4,1.5s.5,1.6,1.4,1.6,1.1-.3,1.2-.8h-1.5v-1.1h3.1v.3h0Z"/>
        <path class="cls-2" d="M5,5.4h1.3v3.2c0,.5,0,.9-.2,1.2-.2.5-.8.9-1.6.9s-1.8-.6-1.8-1.7h0s1.4,0,1.4,0c0,.4.1.6.4.6s.4-.2.4-.6v-3.5h0Z"/>
        <path class="cls-2" d="M0,2.6v10.8h16V2.6H0ZM14.6,12H1.4V4h13.2v8.1Z"/>
      </g>
    </g>
  </g>
</svg>