<?xml version="1.0" encoding="utf-8"?>
<!-- Generator: Adobe Illustrator 28.0.0, SVG Export Plug-In . SVG Version: 6.00 Build 0)  -->
<svg version="1.1" id="Layer_1" xmlns="http://www.w3.org/2000/svg" xmlns:xlink="http://www.w3.org/1999/xlink" x="0px" y="0px"
	 viewBox="0 0 24.26 28.33" style="enable-background:new 0 0 24.26 28.33;" xml:space="preserve">
<style type="text/css">
	.st0{fill:#FFFFFF;}
</style>
<path class="st0" d="M12.92,0h4.7c0,0,0.6,6.64,6.64,6.64c0,1.05,0,4.63,0,4.63s-4.06,0.17-6.58-1.95c0,4.7,0,8.94,0,8.94
	s0.57,10.06-10.06,10.06c0,0-5.79-0.06-7.55-7.55c0-1.62-1.48-9.76,9.7-10.59c0,2.29,0,4.76,0,4.76s-5.96,0.37-5.15,5.15
	c0.45,2.05,1.81,2.73,1.81,2.73s2.1,1.62,4.73-0.02c1.68-1.3,1.72-3.25,1.72-3.25L12.92,0z"/>
</svg>
