<?xml version="1.0" encoding="utf-8"?>
<!-- Generator: Adobe Illustrator 28.0.0, SVG Export Plug-In . SVG Version: 6.00 Build 0)  -->
<svg version="1.1" id="Layer_1" xmlns="http://www.w3.org/2000/svg" xmlns:xlink="http://www.w3.org/1999/xlink" x="0px" y="0px"
	 viewBox="0 0 441.7 69.9" style="enable-background:new 0 0 441.7 69.9;" xml:space="preserve">
<style type="text/css">
	.st0{fill:#FFFFFF;}
</style>
<g>
	<g>
		<g>
			<path class="st0" d="M14.2,0.6h8.5v20.6c0,3.4-0.4,5.9-1.1,7.5c-1.5,3.2-4.9,5.8-10.3,5.8C4.8,34.6,0,30.6,0,23.4v-0.2h9
				c0.1,2.7,0.9,3.9,2.6,3.9c1.7,0,2.6-1,2.6-4V0.6z"/>
			<path class="st0" d="M22.7,18c0-10.3,7.4-18,17.5-18c9.7,0,17.6,7.5,17.6,17.1c0,9.9-7.7,17.5-17.2,17.5
				C31.4,34.6,22.7,27.9,22.7,18z M49.3,17.3c0-5.2-3.7-9.9-9.1-9.9c-5.3,0-9,4.5-9,9.7c0,5.5,3.7,9.9,9.2,9.9
				C45.6,27.1,49.3,22.6,49.3,17.3z"/>
			<path class="st0" d="M77.2,33.9V20.6H66.3v13.3h-8.5V0.6h8.5v12.5h10.9V0.6h8.5v33.3H77.2z"/>
			<path class="st0" d="M108.4,33.9L95.7,13.6l0.2,20.3h-8.1V0.6h7.3l13,21.1l-0.4-21.1h8.1v33.3H108.4z"/>
			<path class="st0" d="M139.9,33.9l-1.6-4.8h-11.6l-1.8,4.8h-9.1l13.4-33.3h6.7l13.2,33.3H139.9z M132.6,11l-0.1,0L129,22.4h7
				L132.6,11z"/>
			<path class="st0" d="M149.1,33.9V8.1h-6.6V0.6h21.6v7.5h-6.5v25.8H149.1z"/>
			<path class="st0" d="M185.5,33.9V20.6h-10.9v13.3h-8.5V0.6h8.5v12.5h10.9V0.6h8.5v33.3H185.5z"/>
			<path class="st0" d="M218.1,33.9l-1.6-4.8h-11.6l-1.8,4.8H194l13.4-33.3h6.7l13.2,33.3H218.1z M210.8,11l-0.1,0l-3.4,11.4h7
				L210.8,11z"/>
			<path class="st0" d="M248,33.9l-12.8-20.3l0.2,20.3h-8.1V0.6h7.3l13,21.1l-0.4-21.1h8.1v33.3H248z"/>
		</g>
		<g>
			<path class="st0" d="M60.3,52.2c0,9-6.6,17.7-17.8,17.7c-9.9,0-17.7-7.7-17.7-17.5c0-10.1,8.1-17.1,17.8-17.1
				c7.5,0,14.8,5.1,16.6,11.8h-9.5c-1.6-2.7-4.1-4.3-7.3-4.3c-5.4,0-9.1,4.3-9.1,9.7c0,5.5,3.5,10,9.1,10c4,0,6.9-1.9,8-5.4h-9.9
				v-6.8h19.8V52.2z"/>
			<path class="st0" d="M78.9,69.3l-1.6-4.8H65.7l-1.8,4.8h-9.1L68.2,36h6.7l13.2,33.3H78.9z M71.6,46.4l-0.1,0L68,57.7h7L71.6,46.4
				z"/>
			<path class="st0" d="M88.1,69.3V36h8.5v25.8h9.9v7.5H88.1z"/>
			<path class="st0" d="M108.5,69.3V36h10.7c2.4,0,4.1,0.1,5.3,0.4c3.8,0.9,6.9,3.8,6.9,8.3c0,2.8-1.3,5.4-3.9,6.8
				c3.6,1.3,5.5,3.9,5.5,7.7c0,3.2-1.4,6.1-3.9,7.9c-2.6,1.8-4.3,2.2-9.6,2.2H108.5z M120,48.6c2.1,0,3.2-0.9,3.2-2.7
				c0-1.8-1.1-2.5-3.2-2.5h-3.4v5.2H120z M121,61.8c2.4,0,3.9-1,3.9-3.2c0-1.9-1.3-2.9-3.8-2.9h-4.4v6.1H121z"/>
			<path class="st0" d="M148.9,69.3l-7.7-10.8h-0.1v10.8h-8.1V36h10.9c3.5,0,6.1,0.5,7.9,1.2c3.6,1.6,6.1,5.5,6.1,10.3
				c0,5.3-3.1,9.6-8.3,10.5l9,11.3H148.9z M144.2,52.7c3.4,0,5.4-1.6,5.4-4.8c0-2.9-2.2-4.5-5.4-4.5h-3.2v9.3H144.2z"/>
			<path class="st0" d="M158.7,69.3V36h18.5v7.5h-10.3v5.2h10v7.5h-10v5.7h10.3v7.5H158.7z"/>
			<path class="st0" d="M201.3,69.3l-1.6-4.8h-11.6l-1.8,4.8h-9.1L190.6,36h6.7l13.2,33.3H201.3z M194,46.4l-0.1,0l-3.4,11.4h7
				L194,46.4z"/>
			<path class="st0" d="M210.5,69.3V43.4h-6.6V36h21.6v7.5H219v25.8H210.5z"/>
			<path class="st0" d="M246.9,69.3V55.9H236v13.3h-8.5V36h8.5v12.5h10.9V36h8.5v33.3H246.9z"/>
		</g>
	</g>
	<g>
		<path class="st0" d="M438.5,0.3h-0.6V0h1.5v0.3h-0.6V2h-0.3V0.3z"/>
		<path class="st0" d="M441.4,2V0.3h0L440.8,2h-0.3L440,0.3h0V2h-0.3V0h0.5l0.5,1.6h0l0.5-1.6h0.5v2H441.4z"/>
	</g>
	<path class="st0" d="M264.2,0v69.3h5.3h158.2h6.3V0H264.2z M272.9,60.5V8.8h152.3v51.8H272.9z"/>
	<g>
		<path class="st0" d="M320.7,51.8V39.3l-10.2-21.8h9.5l5.1,13.7l5.1-13.7h9.4l-10.1,21.8v12.5H320.7z"/>
		<path class="st0" d="M407.7,51.8V38.1h-11.2v13.7h-8.8V17.5h8.8v12.9h11.2V17.5h8.7v34.3H407.7z"/>
		<polygon class="st0" points="370.4,17.5 370.4,25.2 370.4,27.5 370.4,51.8 379.2,51.8 379.2,25.2 385.9,25.2 385.9,17.5 		"/>
		<polygon class="st0" points="368.5,17.5 360.1,17.5 354.1,17.5 354.1,25.2 360.1,25.2 360.2,38.6 347.2,17.5 339.6,17.5 
			339.6,51.8 348,51.8 348,31.2 360.9,51.8 368.5,51.8 368.5,17.5 		"/>
		<polygon class="st0" points="298.8,38.5 303.1,30.8 303.1,30.8 310.5,17.5 306.5,17.5 281.7,17.5 281.7,25.2 296.7,25.2 
			293.6,30.8 286,30.8 281.7,38.5 289.2,38.5 281.7,51.8 284.9,51.8 310.5,51.8 310.5,44.1 295.6,44.1 298.8,38.5 		"/>
	</g>
</g>
</svg>
