<?xml version="1.0" encoding="UTF-8"?>
<svg id="Layer_2" xmlns="http://www.w3.org/2000/svg" version="1.1" viewBox="0 0 220.4 111.4">
  <!-- Generator: Adobe Illustrator 29.1.0, SVG Export Plug-In . SVG Version: 2.1.0 Build 142)  -->
  <defs>
    <style>
      .st0 {
        fill: #fff;
      }
    </style>
  </defs>
  <g id="Layer_1-2">
    <polygon class="st0" points="40.8 95.5 40.8 0 32.6 0 32.6 18.1 32.6 18.1 32.6 24.7 11.3 19 11.3 27.4 32.6 33.1 32.6 33.1 32.6 95.5 40.8 95.5"/>
    <rect class="st0" width="8.2" height="95.5"/>
    <path class="st0" d="M2.6,103.9H0v7.5h1.2v-2.4h1.4c1.9,0,3-.9,3-2.5s-1.1-2.5-3-2.5h0ZM2.6,107.9h-1.4v-3.1h1.4c1.1,0,1.8.5,1.8,1.5s-.6,1.6-1.8,1.6Z"/>
    <path class="st0" d="M17.7,106.1c0-1.4-1.1-2.2-2.8-2.2h-2.7v7.4h1.2v-3h1.5l1.4,3h1.3l-1.6-3.2c.6-.1,1.6-.7,1.6-2ZM14.9,107.4h-1.5v-2.5h1.5c1,0,1.6.4,1.6,1.3s-.8,1.3-1.6,1.3Z"/>
    <path class="st0" d="M27.4,103.8c-2.3,0-3.4,1.7-3.4,3.9s1.1,3.8,3.5,3.8,3.3-1.7,3.3-3.9-1.1-3.7-3.4-3.7ZM27.4,110.4c-1.6,0-2.2-1.3-2.2-2.8s.6-2.9,2.2-2.9,2.1,1.3,2.1,2.7-.6,2.9-2.1,2.9Z"/>
    <path class="st0" d="M40.1,103.9h-2.6v7.5h1.2v-2.4h1.4c1.9,0,3-.9,3-2.5s-1.1-2.5-3-2.5h0ZM40.1,107.9h-1.4v-3.1h1.4c1.1,0,1.8.5,1.8,1.5s-.6,1.6-1.8,1.6Z"/>
    <polygon class="st0" points="49.7 111.3 54.7 111.3 54.7 110.3 50.9 110.3 50.9 107.8 54.7 107.8 54.7 106.8 50.9 106.8 50.9 104.9 54.7 104.9 54.7 103.9 49.7 103.9 49.7 111.3"/>
    <path class="st0" d="M67.1,106.1c0-1.4-1.1-2.2-2.7-2.2h-2.7v7.4h1.2v-3h1.5l1.4,3h1.3l-1.6-3.2c.6-.1,1.6-.7,1.6-2h0ZM64.4,107.4h-1.5v-2.5h1.5c1,0,1.6.4,1.6,1.3s-.8,1.3-1.6,1.3Z"/>
    <polygon class="st0" points="73.1 104.9 75.3 104.9 75.3 111.3 76.5 111.3 76.5 104.9 78.7 104.9 78.7 103.9 73.1 103.9 73.1 104.9"/>
    <polygon class="st0" points="87.5 107.4 85.5 103.9 84.2 103.9 86.9 108.4 86.9 111.3 88.1 111.3 88.1 108.4 90.9 103.9 89.6 103.9 87.5 107.4"/>
    <path class="st0" d="M108.1,107.1l-.8-.2c-.7-.2-1.2-.6-1.2-1.1s.8-1,1.4-1,1.7.3,2.2.9v-1.3c-.3-.2-1.1-.6-2.2-.6s-2.6.6-2.6,2,.8,1.7,2,2.1l.7.2c.6.2,1.3.5,1.3,1.2s-.5,1.1-1.5,1.1-1.8-.4-2.4-1.1v1.3c.3.3,1.1.8,2.4.8s2.7-1,2.7-2.2-.8-1.8-2-2.1h0Z"/>
    <path class="st0" d="M119.8,103.8c-2.3,0-3.4,1.7-3.4,3.9s1.1,3.8,3.4,3.8,3.3-1.7,3.3-3.9-1.1-3.7-3.4-3.7h0ZM119.8,110.4c-1.6,0-2.2-1.3-2.2-2.8s.6-2.9,2.2-2.9,2.1,1.3,2.1,2.7-.6,2.9-2.1,2.9Z"/>
    <polygon class="st0" points="131.1 103.9 129.9 103.9 129.9 111.3 134.6 111.3 134.6 110.3 131.1 110.3 131.1 103.9"/>
    <path class="st0" d="M145.6,108.4c0,1-.4,2-1.8,2s-1.8-.9-1.8-2v-4.6h-1.2v4.6c0,2,1.2,3,2.9,3s2.9-1.4,2.9-3v-4.6h-1.2v4.5h0Z"/>
    <polygon class="st0" points="153.1 104.9 155.3 104.9 155.3 111.3 156.5 111.3 156.5 104.9 158.7 104.9 158.7 103.9 153.1 103.9 153.1 104.9"/>
    <rect class="st0" x="165.2" y="103.9" width="1.2" height="7.5"/>
    <path class="st0" d="M176.5,103.8c-2.3,0-3.4,1.7-3.4,3.9s1.1,3.8,3.5,3.8,3.3-1.7,3.3-3.9-1.1-3.7-3.4-3.7ZM176.5,110.4c-1.6,0-2.2-1.3-2.2-2.8s.6-2.9,2.2-2.9,2.1,1.3,2.1,2.7-.6,2.9-2.1,2.9Z"/>
    <polygon class="st0" points="191.3 109.5 187.6 103.9 186.6 103.9 186.6 111.3 187.8 111.3 187.8 105.9 191.3 111.3 192.5 111.3 192.5 103.9 191.3 103.9 191.3 109.5"/>
    <path class="st0" d="M202.4,107.1l-.8-.2c-.7-.2-1.2-.6-1.2-1.1s.7-1,1.4-1,1.7.3,2.3.9v-1.3c-.3-.2-1.1-.6-2.3-.6s-2.6.6-2.6,2,.8,1.7,2,2.1l.7.2c.6.2,1.3.5,1.3,1.2s-.5,1.1-1.5,1.1-1.8-.4-2.4-1.1v1.3c.3.3,1.2.8,2.4.8s2.7-1,2.7-2.2-.8-1.8-2-2.1h0Z"/>
    <rect class="st0" x="195.9" width="8.2" height="95.5"/>
    <polygon class="st0" points="155.1 47.8 155.1 47.8 171 31.8 179.6 23.3 187.7 15.1 187.7 15.1 187.7 3.6 187.7 0 179.6 0 179.6 11.7 159.4 31.8 155.1 36.2 155.1 36.2 155.1 0 146.9 0 146.9 95.5 155.1 95.5 155.1 47.8"/>
    <polygon class="st0" points="179.6 95.5 187.7 95.5 187.7 48.6 186.9 47.8 173.2 34 167.4 39.8 179.6 52 179.6 95.5"/>
    <polygon class="st0" points="89.8 41.3 89.8 41.3 89.8 29.8 89.8 0 81.6 0 81.6 37.9 73.5 46.1 73.5 46.1 69.4 50.2 66.5 47.3 65.3 46.1 65.3 46.1 65.3 46.1 57.1 37.9 57.1 0 49 0 49 29.8 49 29.8 49 41.3 49 41.3 49 41.3 57.1 49.5 57.1 49.5 63.6 55.9 63.6 55.9 63.6 55.9 65.3 57.6 65.3 65.8 65.3 65.8 65.3 95.5 73.5 95.5 73.5 57.6 73.5 57.6 75.1 55.9 81.6 49.5 85 46.1 89.8 41.3"/>
    <polygon class="st0" points="122.4 4.1 118.3 0 118.3 0 118.3 0 118.3 0 118.3 0 114.3 4.1 106.1 12.2 106.1 12.2 105.1 13.2 97.9 20.4 97.9 20.4 97.9 20.4 97.9 32 97.9 32 103 37 106.1 40.1 106.1 40.1 114.3 48.3 114.3 48.3 114.3 48.3 122.4 56.4 122.4 56.4 122.4 56.4 130.6 64.6 130.6 71.8 122.4 79.9 122.4 79.9 118.3 84 114.3 79.9 106.1 71.8 106.1 71.8 106.1 64.6 98.9 64.6 98.9 64.6 97.9 64.6 97.9 64.6 97.9 64.6 97.9 71.8 97.9 71.8 97.9 71.8 97.9 75.1 106.1 83.3 106.1 83.3 106.1 83.3 106.1 83.3 114.3 91.5 118.3 95.5 118.3 95.5 118.3 95.5 122.4 91.5 130.6 83.3 130.6 83.3 138.7 75.1 138.7 75.1 138.7 72.8 138.7 63.6 138.7 61.2 130.6 53 122.4 44.9 114.3 36.7 106.1 28.6 106.1 23.8 114.3 15.6 114.3 15.6 116.5 13.4 118.3 11.5 118.3 11.5 122.4 15.6 122.4 15.6 122.4 15.6 130.6 23.8 130.6 23.8 130.6 30.9 130.6 30.9 137.7 30.9 138.7 30.9 138.7 30.9 138.7 23.8 138.7 20.4 130.6 12.2 122.4 4.1"/>
    <polygon class="st0" points="212.2 .5 213.4 .5 213.4 4 214 4 214 .5 215.2 .5 215.2 0 212.2 0 212.2 .5"/>
    <polygon class="st0" points="219.6 0 218.2 2.9 216.7 0 216 0 216 4 216.6 4 216.6 1.1 218.1 4.1 218.2 4.1 219.7 1.1 219.7 4 220.4 4 220.4 0 219.6 0"/>
  </g>
</svg>