<?xml version="1.0" encoding="UTF-8"?><svg id="Layer_2" xmlns="http://www.w3.org/2000/svg" viewBox="0 0 59.31 112.94"><defs><style>.cls-1{fill:#fff;}</style></defs><g id="Layer_1-2"><polygon class="cls-1" points="44.96 41.3 38.84 41.3 38.84 59.8 22.81 55.51 22.81 61.85 38.84 66.14 38.84 112.94 44.96 112.94 44.96 67.78 44.96 67.78 44.96 61.45 44.96 61.45 44.96 59.58 44.96 59.58 44.96 53.24 44.96 53.24 44.96 41.3"/><rect class="cls-1" x="14.35" y="41.3" width="6.12" height="71.65"/><polygon class="cls-1" points="29.66 15.63 33.99 11.3 40.96 4.33 36.63 0 29.66 6.97 29.66 6.97 22.69 0 18.36 4.33 25.33 11.3 25.33 11.3 0 36.63 4.33 40.96 28.81 16.47 29.66 15.63"/><rect class="cls-1" x="42.25" y="10.21" width="6.12" height="33.48" transform="translate(-5.79 39.94) rotate(-45)"/></g></svg>